<svg width="24" height="25" viewBox="0 0 24 25" fill="none" xmlns="http://www.w3.org/2000/svg">
<path d="M21.8816 6.97709C21.5194 7.97468 20.9891 8.79595 20.274 9.49225C20.2147 9.54997 20.1059 9.59339 20.0252 9.58544C19.229 9.50708 18.4364 9.50761 17.6443 9.64157C17.5725 9.65375 17.4538 9.5775 17.4059 9.50761C17.0999 9.06176 16.8158 8.60056 16.5077 8.15683C16.3781 7.97044 16.4223 7.87937 16.5904 7.75652C17.9383 6.77164 19.4309 6.48411 21.0468 6.78329C21.3169 6.83306 21.5824 6.90666 21.8816 6.97656V6.97709Z" fill="white"/>
<path d="M17.6578 10.2966C19.5027 9.76759 21.6271 10.5116 23 11.8962C22.6799 12.1514 22.3859 12.4379 22.045 12.6439C21.5798 12.925 21.0822 13.1538 20.5889 13.3825C20.4957 13.426 20.3344 13.4005 20.2397 13.345C19.5636 12.9499 18.8767 12.5846 18.1163 12.3807C18.0466 12.3622 17.9461 12.2939 17.9368 12.2362C17.8353 11.5949 17.7494 10.951 17.6573 10.2966H17.6578Z" fill="white"/>
<path d="M1 12.08C1.45017 11.7548 1.86131 11.4244 2.30523 11.1491C2.65652 10.9315 3.04424 10.7705 3.42571 10.6095C3.52355 10.5682 3.68176 10.5852 3.77596 10.6402C4.45199 11.0363 5.13947 11.3995 5.89878 11.6055C5.9732 11.6256 6.07624 11.7056 6.08665 11.7713C6.18865 12.404 6.27348 13.04 6.363 13.6711C4.76112 14.2128 2.52485 13.6044 1 12.08Z" fill="white"/>
<path d="M7.65001 16.0285C6.02212 17.3634 4.03305 17.5604 2.17668 16.9747C2.35051 16.3663 2.67473 15.8389 3.03435 15.3343C3.22118 15.0722 3.44965 14.8413 3.64897 14.5877C3.78324 14.4167 3.94405 14.3754 4.15014 14.4024C4.87614 14.4961 5.59953 14.4654 6.3224 14.351C6.40879 14.3372 6.54931 14.3876 6.59719 14.4564C6.95576 14.9711 7.29768 15.4974 7.65001 16.028V16.0285Z" fill="white"/>
<path d="M9.10981 6.76052C8.19854 4.79445 8.43273 2.9327 9.42103 1.09478C10.2678 1.65818 10.9287 2.37725 11.4564 3.22605C11.4944 3.28695 11.4928 3.39496 11.471 3.46963C11.2378 4.25489 11.0338 5.04438 11.0156 5.87253C11.0141 5.93607 10.9407 6.02927 10.8793 6.05468C10.3037 6.29243 9.72339 6.518 9.11033 6.76052H9.10981Z" fill="white"/>
<path d="M18.9589 20.6813C18.7044 20.632 18.439 20.6215 18.2048 20.5283C17.5636 20.273 16.9318 19.9919 16.3063 19.699C16.2053 19.6519 16.1049 19.4973 16.0913 19.3819C15.9961 18.5818 15.8103 17.8087 15.5137 17.0616C15.4892 17.0001 15.5147 16.8842 15.5605 16.8339C15.9784 16.3663 16.4062 15.9078 16.8298 15.4476C18.3505 16.5861 19.1348 18.5876 18.9589 20.6818V20.6813Z" fill="white"/>
<path d="M14.58 22.8877C14.3552 22.7199 14.1434 22.5854 13.9597 22.4191C13.4273 21.9378 12.9459 21.4083 12.5738 20.7861C12.5264 20.7067 12.5202 20.5733 12.5472 20.4806C12.7695 19.7192 12.9641 18.9535 12.9995 18.1539C13.0031 18.075 13.0609 17.9548 13.1239 17.9284C13.7062 17.6853 14.2948 17.4587 14.9053 17.2183C15.7989 19.1658 15.5787 21.0159 14.5795 22.8877H14.58Z" fill="white"/>
<path d="M14.2797 1.00053C14.6076 1.49244 14.822 1.97959 14.9662 2.4948C15.077 2.89193 15.1478 3.30018 15.2378 3.70314C15.2758 3.87258 15.2077 3.98907 15.1025 4.12516C14.6362 4.73197 14.1928 5.35732 13.7333 5.96943C13.6745 6.0478 13.5673 6.14629 13.4871 6.14205C12.9261 6.11187 12.3661 6.05415 11.8056 6.01179C11.6557 6.00067 11.6089 5.95514 11.6151 5.7841C11.6698 4.2893 12.2261 3.01901 13.2529 1.96053C13.5678 1.63594 13.9123 1.34206 14.2797 1V1.00053Z" fill="white"/>
<path d="M9.72756 22.9995C9.17434 22.0749 8.87562 21.1478 8.76997 20.1565C8.7606 20.0686 8.81109 19.9474 8.87406 19.8817C9.43248 19.2993 9.91907 18.6649 10.3058 17.9506C10.3406 17.8865 10.4546 17.8272 10.528 17.8315C11.09 17.8638 11.6511 17.913 12.2121 17.9564C12.3521 17.9676 12.3973 18.0412 12.3932 18.1841C12.3541 19.501 11.9128 20.6659 11.0687 21.6556C10.6648 22.129 10.1897 22.5404 9.72704 23L9.72756 22.9995Z" fill="white"/>
<path d="M14.2168 6.38669C15.1728 4.49052 16.7148 3.48604 18.7778 3.11644C18.7778 3.5104 18.8205 3.88264 18.7684 4.24059C18.6815 4.83946 18.5415 5.43092 18.4036 6.02027C18.3817 6.11505 18.2693 6.22254 18.1741 6.25907C17.4512 6.53495 16.7549 6.86218 16.1319 7.33133C16.0023 7.42876 15.9097 7.43405 15.7661 7.34298C15.3273 7.06393 14.8735 6.8087 14.427 6.54183C14.3552 6.49894 14.2912 6.44281 14.2168 6.38774V6.38669Z" fill="white"/>
<path d="M5.05933 3.32348C5.60682 3.36637 6.12568 3.52522 6.62894 3.73438C6.93234 3.85987 7.21494 4.03726 7.5173 4.16381C7.81707 4.28983 7.90398 4.51011 7.96643 4.82146C8.10435 5.5077 8.31043 6.17965 8.48061 6.85954C8.50299 6.94796 8.51704 7.08458 8.46916 7.13806C8.04554 7.61356 7.60682 8.07529 7.17434 8.53967C5.56102 7.27891 4.86781 5.22494 5.05985 3.32401L5.05933 3.32348Z" fill="white"/>
<path d="M5.25709 20.8131C5.17226 20.0152 5.25033 19.2325 5.44965 18.4589C5.62191 17.7912 5.63232 17.8161 6.23862 17.5291C6.80744 17.2601 7.34608 16.9244 7.90398 16.6311C7.98725 16.5871 8.12881 16.5697 8.20375 16.6125C8.7377 16.9154 9.26177 17.2368 9.78689 17.5508C9.00208 19.3893 7.12542 20.5992 5.25709 20.8131Z" fill="white"/>
<path d="M6.18761 11.0437C4.12985 10.5258 2.86001 9.17931 2.02992 7.2429C2.35519 7.16241 2.656 7.04698 2.96461 7.02104C3.60057 6.96703 4.24018 6.95432 4.87822 6.9432C4.96721 6.94161 5.09212 7.02209 5.14312 7.10258C5.59173 7.80736 6.10539 8.45441 6.72417 9.01305C6.75748 9.04323 6.78558 9.11736 6.77309 9.1576C6.58522 9.77766 6.39006 10.3956 6.18709 11.0437H6.18761Z" fill="white"/>
<path d="M17.2165 14.9134C17.4033 14.3071 17.5933 13.696 17.7796 13.0839C17.8316 12.9129 17.9404 12.9722 18.0502 13.0013C18.7981 13.1993 19.4809 13.5403 20.071 14.0413C20.9214 14.764 21.5558 15.6557 21.982 16.7815C21.4798 16.8762 21.0016 16.9975 20.5165 17.0483C20.096 17.0928 19.6677 17.0494 19.243 17.061C19.0349 17.0663 18.9136 16.9758 18.8064 16.8021C18.3713 16.0989 17.8551 15.4625 17.217 14.9134H17.2165Z" fill="white"/>
</svg>
