<svg width="23" height="23" viewBox="0 0 23 23" fill="none" xmlns="http://www.w3.org/2000/svg">
<path d="M18.2734 1.29619C17.6983 1.20352 17.1092 1.2566 16.5599 1.45057C16.0106 1.64456 15.5187 1.97324 15.1291 2.40657C14.3867 3.23521 14.1559 4.31584 14.3343 5.39735C14.496 6.37385 14.7103 7.36441 14.7583 8.30416C14.8256 9.72035 14.6095 11.1359 14.1227 12.4674C13.682 13.6723 13.0541 14.6068 11.7093 14.8132C11.6096 14.8291 11.2468 14.8404 11.1436 14.8466C10.9665 14.8467 10.7896 14.8362 10.6137 14.8151C9.26894 14.6077 8.63587 13.6732 8.19693 12.4612C7.71 11.1294 7.49387 9.71366 7.5612 8.29707C7.60933 7.36087 7.8236 6.36948 7.9844 5.39123C8.1628 4.30885 7.932 3.22908 7.19053 2.3987C6.8 1.96526 6.30666 1.63716 5.75613 1.44464C5.20546 1.25211 4.61539 1.20137 4.04007 1.29706C2.31491 1.57619 1.16684 3.10396 1.15634 4.7061C1.15172 5.32333 1.31981 5.92953 1.64162 6.45611C2.17851 7.33987 3.05902 7.98299 3.8276 8.65237C4.3365 9.09862 5.21706 10.3674 5.64813 11.7429C5.90946 12.576 6.122 13.4194 6.33266 14.2717C6.62826 15.4591 7.03573 18.0815 7.30333 19.2714C7.8376 21.655 9.4744 22.1949 11.1139 22.25H11.1716C12.8111 22.1949 14.4741 21.6541 15.0092 19.2706C15.276 18.0806 15.6816 15.4565 15.9799 14.2708C16.1915 13.4229 16.4031 12.575 16.6644 11.742C17.0956 10.3665 17.976 9.09337 18.484 8.65066C19.2535 7.98037 20.1332 7.33816 20.67 6.45436C20.9922 5.92785 21.1606 5.32165 21.1562 4.70434C21.1475 3.09957 20.002 1.57181 18.2734 1.29619Z" fill="white"/>
</svg>
