<svg width="20" height="21" viewBox="0 0 20 21" fill="none" xmlns="http://www.w3.org/2000/svg">
<path d="M17.6334 4.25183L11.4872 0.697805C11.0437 0.447961 10.5503 0.310547 10.0381 0.310547C9.52592 0.310547 9.03248 0.447961 8.59525 0.697805L2.4491 4.25183C2.01187 4.50792 1.64335 4.8702 1.38726 5.31367C1.13117 5.7509 1 6.25058 1 6.76276V13.8833C1.00625 14.3892 1.13741 14.8827 1.3935 15.3199C1.64959 15.7571 2.01187 16.1194 2.4491 16.3693L8.59525 19.9233C9.03248 20.1794 9.53217 20.3105 10.0443 20.3105C10.5565 20.3105 11.05 20.1794 11.4934 19.9233L17.6396 16.3693C18.0768 16.1132 18.4453 15.7509 18.7014 15.3074C18.9575 14.8702 19.0887 14.3705 19.0887 13.8583V6.73778C19.0824 6.23185 18.9513 5.7384 18.6952 5.30118C18.4329 4.86395 18.0706 4.50168 17.6334 4.25183ZM2.44285 6.75652C2.44285 6.50043 2.51156 6.25058 2.63648 6.03197C2.7614 5.81336 2.94878 5.62597 3.1674 5.50105L9.31355 1.95327C9.53217 1.82835 9.78201 1.75964 10.0381 1.75964C10.2942 1.75964 10.544 1.82835 10.7626 1.95327L16.9151 5.50105C17.1337 5.62597 17.3148 5.80711 17.4397 6.01948C17.5646 6.23809 17.6334 6.48169 17.6396 6.73153V7.45608C17.6396 8.01823 17.4147 8.56164 17.015 8.95514C16.6152 9.35489 16.0781 9.57975 15.5159 9.57975H4.57277C3.8045 9.57975 3.06121 9.82335 2.44285 10.2856V6.75652ZM17.6334 13.8583C17.6334 14.1144 17.5646 14.3643 17.4397 14.5829C17.3148 14.8015 17.1274 14.9889 16.9088 15.1138L10.7564 18.6616C10.5378 18.7865 10.2879 18.8552 10.0319 18.8552C9.77577 18.8552 9.52592 18.7865 9.30731 18.6616L3.16115 15.1138C2.94254 14.9889 2.7614 14.8077 2.63648 14.5954C2.51156 14.3768 2.44285 14.1332 2.4366 13.8833V13.1588C2.4366 12.5966 2.66146 12.0532 3.06121 11.6597C3.46096 11.26 3.99813 11.0351 4.56027 11.0351H15.4972C16.2655 11.0351 17.0087 10.7915 17.6271 10.3293V13.8583H17.6334Z" fill="white"/>
<path d="M6.6777 6.39424H8.08307V8.49293H9.53217V6.39424C9.53217 6.01323 9.38226 5.64471 9.10743 5.36988C8.83885 5.1013 8.47033 4.94515 8.08307 4.94515H6.6777C6.29669 4.94515 5.92817 5.09506 5.65334 5.36988C5.38476 5.63847 5.22861 6.00699 5.22861 6.39424V8.49293H6.6777V6.39424Z" fill="white"/>
<path d="M8.07683 14.2206H6.67146V12.1219H5.22236V14.2206C5.22236 14.6016 5.37227 14.9701 5.6471 15.245C5.91568 15.5135 6.2842 15.6697 6.67146 15.6697H8.07683C8.45784 15.6697 8.82636 15.5198 9.10119 15.245C9.36977 14.9764 9.52592 14.6079 9.52592 14.2206V12.1219H8.07683V14.2206Z" fill="white"/>
<path d="M12.3741 6.39424H13.7795V8.49293H15.2286V6.39424C15.2286 6.01323 15.0787 5.64471 14.8039 5.36988C14.5353 5.1013 14.1668 4.94515 13.7795 4.94515H12.3741C11.9931 4.94515 11.6246 5.09506 11.3498 5.36988C11.0812 5.63847 10.925 6.00699 10.925 6.39424V8.49293H12.3741V6.39424Z" fill="white"/>
<path d="M13.7858 14.2206H12.3804V12.1219H10.9313V14.2206C10.9313 14.6016 11.0812 14.9701 11.356 15.245C11.6246 15.5135 11.9931 15.6697 12.3804 15.6697H13.7858C14.1668 15.6697 14.5353 15.5198 14.8101 15.245C15.0787 14.9764 15.2349 14.6079 15.2349 14.2206V12.1219H13.7858V14.2206Z" fill="white"/>
</svg>
