<svg width="32" height="33" viewBox="0 0 32 33" fill="none" xmlns="http://www.w3.org/2000/svg">
<path d="M23.3734 10.8603C23.2801 10.847 23.1867 10.847 23.0934 10.8603C21.0267 10.7937 19.3867 9.10032 19.3867 7.02033C19.3867 4.90033 21.1067 3.16699 23.2401 3.16699C25.3601 3.16699 27.0934 4.88699 27.0934 7.02033C27.0801 9.10032 25.4401 10.7937 23.3734 10.8603Z" fill="#2A4DFD"/>
<path d="M27.7201 20.1005C26.2268 21.1005 24.1335 21.4739 22.2001 21.2205C22.7068 20.1272 22.9735 18.9139 22.9868 17.6339C22.9868 16.3005 22.6935 15.0339 22.1335 13.9272C24.1068 13.6605 26.2001 14.0339 27.7068 15.0339C29.8135 16.4205 29.8135 18.7005 27.7201 20.1005Z" fill="#2A4DFD"/>
<path d="M8.58655 10.8603C8.67988 10.847 8.77322 10.847 8.86655 10.8603C10.9332 10.7937 12.5732 9.10032 12.5732 7.02033C12.5732 4.88699 10.8532 3.16699 8.71988 3.16699C6.59988 3.16699 4.87988 4.88699 4.87988 7.02033C4.87988 9.10032 6.51988 10.7937 8.58655 10.8603Z" fill="#2A4DFD"/>
<path d="M8.73349 17.6331C8.73349 18.9265 9.01349 20.1531 9.52016 21.2598C7.64016 21.4598 5.68016 21.0598 4.24016 20.1131C2.13349 18.7131 2.13349 16.4331 4.24016 15.0331C5.66682 14.0731 7.68016 13.6865 9.57349 13.8998C9.02682 15.0198 8.73349 16.2865 8.73349 17.6331Z" fill="#2A4DFD"/>
<path d="M16.1601 21.66C16.0534 21.6467 15.9334 21.6467 15.8134 21.66C13.3601 21.58 11.4001 19.5667 11.4001 17.0867C11.4134 14.5533 13.4534 12.5 16.0001 12.5C18.5334 12.5 20.5867 14.5533 20.5867 17.0867C20.5734 19.5667 18.6267 21.58 16.1601 21.66Z" fill="#2A4DFD"/>
<path d="M11.8267 24.4195C9.81341 25.7662 9.81341 27.9795 11.8267 29.3129C14.1201 30.8462 17.8801 30.8462 20.1734 29.3129C22.1867 27.9662 22.1867 25.7529 20.1734 24.4195C17.8934 22.8862 14.1334 22.8862 11.8267 24.4195Z" fill="#2A4DFD"/>
</svg>
