<svg width="16" height="16" viewBox="0 0 16 16" fill="none" xmlns="http://www.w3.org/2000/svg">
<path opacity="0.65" fill-rule="evenodd" clip-rule="evenodd" d="M0.292893 0.292893C0.683417 -0.0976311 1.31658 -0.0976311 1.70711 0.292893L8.00002 6.5858L14.2929 0.292928C14.6834 -0.097596 15.3166 -0.097596 15.7071 0.292928C16.0976 0.683453 16.0976 1.31662 15.7071 1.70714L9.41423 8.00002L15.7071 14.2929C16.0976 14.6834 16.0976 15.3166 15.7071 15.7071C15.3166 16.0976 14.6834 16.0976 14.2929 15.7071L8.00002 9.41423L1.70714 15.7071C1.31662 16.0976 0.683453 16.0976 0.292928 15.7071C-0.097596 15.3166 -0.097596 14.6834 0.292928 14.2929L6.5858 8.00002L0.292893 1.70711C-0.0976311 1.31658 -0.0976311 0.683417 0.292893 0.292893Z" fill="white"/>
</svg>
