<svg width="26" height="8" viewBox="0 0 26 8" fill="none" xmlns="http://www.w3.org/2000/svg">
<path fill-rule="evenodd" clip-rule="evenodd" d="M21.4697 0.46967C21.7626 0.176777 22.2374 0.176777 22.5303 0.46967L25.5303 3.46967C25.671 3.61032 25.75 3.80109 25.75 4C25.75 4.19891 25.671 4.38968 25.5303 4.53033L22.5303 7.53033C22.2374 7.82322 21.7626 7.82322 21.4697 7.53033C21.1768 7.23744 21.1768 6.76256 21.4697 6.46967L23.9393 4L21.4697 1.53033C21.1768 1.23744 21.1768 0.762563 21.4697 0.46967Z" fill="white"/>
<path fill-rule="evenodd" clip-rule="evenodd" d="M0.75 4C0.75 3.58579 1.08579 3.25 1.5 3.25H24.33C24.7442 3.25 25.08 3.58579 25.08 4C25.08 4.41421 24.7442 4.75 24.33 4.75H1.5C1.08579 4.75 0.75 4.41421 0.75 4Z" fill="white"/>
</svg>
