<svg width="15" height="15" viewBox="0 0 15 15" fill="none" xmlns="http://www.w3.org/2000/svg">
<path fill-rule="evenodd" clip-rule="evenodd" d="M7.5 15C11.6421 15 15 11.6421 15 7.5C15 3.35786 11.6421 0 7.5 0C3.35786 0 0 3.35786 0 7.5C0 11.6421 3.35786 15 7.5 15ZM4.74686 4.12814C4.576 3.95729 4.299 3.95729 4.12814 4.12814C3.95729 4.299 3.95729 4.576 4.12814 4.74686L6.88129 7.50001L4.12816 10.2531C3.9573 10.424 3.9573 10.701 4.12816 10.8719C4.29901 11.0427 4.57602 11.0427 4.74687 10.8719L7.50001 8.11873L10.2531 10.8719C10.424 11.0427 10.701 11.0427 10.8719 10.8719C11.0427 10.701 11.0427 10.424 10.8719 10.2531L8.11873 7.50001L10.8719 4.74687C11.0427 4.57602 11.0427 4.29901 10.8719 4.12816C10.701 3.9573 10.424 3.9573 10.2531 4.12816L7.50001 6.88129L4.74686 4.12814Z" fill="white" fill-opacity="0.65"/>
</svg>
