<svg width="22" height="22" viewBox="0 0 22 22" fill="none" xmlns="http://www.w3.org/2000/svg">
<path fill-rule="evenodd" clip-rule="evenodd" d="M21 13.25C21.4142 13.25 21.75 13.5858 21.75 14C21.75 18.2842 18.2842 21.75 14 21.75C13.7298 21.75 13.4805 21.6047 13.3473 21.3695C13.2142 21.1344 13.2179 20.8458 13.3569 20.6141L14.4069 18.8641C14.62 18.5089 15.0807 18.3938 15.4359 18.6069C15.7911 18.82 15.9062 19.2807 15.6931 19.6359L15.4218 20.0881C18.1909 19.4456 20.25 16.9666 20.25 14C20.25 13.5858 20.5858 13.25 21 13.25Z" fill="white"/>
<path fill-rule="evenodd" clip-rule="evenodd" d="M6.57819 1.91194C3.8091 2.55437 1.75 5.03342 1.75 8C1.75 8.41421 1.41421 8.75 1 8.75C0.585786 8.75 0.25 8.41421 0.25 8C0.25 3.71579 3.71579 0.25 8 0.25C8.2702 0.25 8.51952 0.395345 8.65265 0.630476C8.78578 0.865608 8.78214 1.15417 8.64312 1.38587L7.59312 3.13587C7.38 3.49106 6.91931 3.60623 6.56412 3.39312C6.20894 3.18001 6.09377 2.71931 6.30688 2.36413L6.57819 1.91194Z" fill="white"/>
<path fill-rule="evenodd" clip-rule="evenodd" d="M12.0506 3.07475C12.2579 2.71612 12.7166 2.5934 13.0753 2.80065L16.6789 4.88315L20.2431 2.81159C20.6012 2.60345 21.0603 2.72503 21.2684 3.08315C21.4766 3.44127 21.355 3.90031 20.9969 4.10846L17.0569 6.39843C16.8244 6.53352 16.5375 6.53388 16.3047 6.39937L12.3247 4.09938C11.9661 3.89213 11.8434 3.43339 12.0506 3.07475Z" fill="white"/>
<path fill-rule="evenodd" clip-rule="evenodd" d="M16.68 4.98999C17.0942 4.98999 17.43 5.32578 17.43 5.73999V9.82001C17.43 10.2342 17.0942 10.57 16.68 10.57C16.2658 10.57 15.93 10.2342 15.93 9.82001V5.73999C15.93 5.32578 16.2658 4.98999 16.68 4.98999Z" fill="white"/>
<path fill-rule="evenodd" clip-rule="evenodd" d="M16.6788 0.25C17.1065 0.25 17.5767 0.336139 17.9709 0.552566L17.9735 0.553986L20.3716 1.88286C20.7941 2.11409 21.1301 2.49142 21.3583 2.88073C21.587 3.27096 21.75 3.74591 21.75 4.21995V6.75999C21.75 7.23743 21.5823 7.71329 21.3534 8.10118C21.1245 8.48909 20.7895 8.86488 20.3742 9.0956L17.9753 10.425C17.9749 10.4252 17.9745 10.4254 17.9742 10.4257C17.5761 10.6473 17.1031 10.7375 16.6713 10.7375C16.2412 10.7375 15.7689 10.648 15.3733 10.4242L12.9784 9.09705C12.5558 8.86581 12.2198 8.48849 11.9917 8.0992C11.763 7.70897 11.6 7.23403 11.6 6.75999V4.21995C11.6 3.74251 11.7677 3.26666 11.9966 2.87876C12.2255 2.49085 12.5605 2.11506 12.9758 1.88434L15.3844 0.549599C15.7804 0.336357 16.2503 0.25 16.6788 0.25ZM16.0988 1.86866L13.7042 3.19557C13.7041 3.19563 13.7043 3.19551 13.7042 3.19557C13.5796 3.26494 13.4194 3.41925 13.2884 3.64114C13.1573 3.86324 13.1 4.07738 13.1 4.21995V6.75999C13.1 6.90595 13.157 7.121 13.2858 7.34076C13.4147 7.56071 13.5728 7.71268 13.6991 7.78156L13.7035 7.78396L16.1108 9.11799C16.2243 9.18256 16.4253 9.2375 16.6713 9.2375C16.9165 9.2375 17.123 9.18287 17.2447 9.11497L17.2465 9.114L19.6458 7.78436C19.6458 7.78432 19.6457 7.78441 19.6458 7.78436C19.7704 7.71502 19.9306 7.56073 20.0616 7.33879C20.1927 7.11669 20.25 6.90255 20.25 6.75999V4.21995C20.25 4.07399 20.193 3.85894 20.0642 3.63918C19.9353 3.41923 19.7771 3.26726 19.6509 3.19838L19.6465 3.19598L17.2491 1.86743C17.2487 1.86725 17.2484 1.86707 17.2481 1.86689C17.1321 1.80355 16.9278 1.75 16.6788 1.75C16.4318 1.75 16.2231 1.80269 16.0988 1.86866Z" fill="white"/>
<path fill-rule="evenodd" clip-rule="evenodd" d="M0.70105 14.074C0.908691 13.7156 1.36757 13.5934 1.72598 13.8011L5.31988 15.8832L8.89384 13.8112C9.25219 13.6034 9.7111 13.7255 9.91885 14.0839C10.1266 14.4422 10.0045 14.9011 9.64617 15.1089L5.69617 17.3988C5.4636 17.5337 5.17665 17.5337 4.94404 17.399L0.974039 15.099C0.615629 14.8913 0.493408 14.4325 0.70105 14.074Z" fill="white"/>
<path fill-rule="evenodd" clip-rule="evenodd" d="M5.32001 15.99C5.73422 15.99 6.07001 16.3258 6.07001 16.74V20.82C6.07001 21.2342 5.73422 21.57 5.32001 21.57C4.90579 21.57 4.57001 21.2342 4.57001 20.82V16.74C4.57001 16.3258 4.90579 15.99 5.32001 15.99Z" fill="white"/>
<path fill-rule="evenodd" clip-rule="evenodd" d="M5.32125 11.25C5.74971 11.25 6.21955 11.3364 6.61557 11.5496L6.62355 11.5539L9.02154 12.8828C9.44413 13.1141 9.78015 13.4914 10.0083 13.8807C10.237 14.271 10.4 14.7459 10.4 15.2199V17.76C10.4 18.2374 10.2323 18.7133 10.0034 19.1012C9.77447 19.4891 9.43953 19.8649 9.02424 20.0956L6.6253 21.425C6.62493 21.4252 6.62456 21.4254 6.62419 21.4256C6.22616 21.6473 5.75313 21.7375 5.32125 21.7375C4.89115 21.7375 4.41887 21.648 4.02324 21.4242L1.62838 20.097C1.20584 19.8658 0.869843 19.4885 0.641692 19.0992C0.412988 18.709 0.25 18.234 0.25 17.76V15.2199C0.25 14.7425 0.417677 14.2667 0.646599 13.8788C0.875536 13.4908 1.21048 13.1151 1.62577 12.8843L4.02905 11.5526C4.42326 11.3361 4.89354 11.25 5.32125 11.25ZM4.75196 12.8669L2.35424 14.1956C2.35413 14.1956 2.35435 14.1955 2.35424 14.1956C2.22958 14.2649 2.06935 14.4193 1.93841 14.6411C1.80733 14.8633 1.75 15.0774 1.75 15.2199V17.76C1.75 17.9059 1.80702 18.121 1.93581 18.3408C2.06472 18.5607 2.22286 18.7127 2.34914 18.7816L2.35355 18.784L4.76075 20.118C4.87431 20.1826 5.07529 20.2375 5.32125 20.2375C5.56647 20.2375 5.77295 20.1829 5.89469 20.115L5.89646 20.114L8.29577 18.7844C8.29584 18.7843 8.29571 18.7844 8.29577 18.7844C8.42045 18.715 8.5806 18.5608 8.71159 18.3388C8.84267 18.1167 8.89999 17.9026 8.89999 17.76V15.2199C8.89999 15.074 8.84298 14.8589 8.71418 14.6392C8.58528 14.4192 8.42715 14.2673 8.30087 14.1984L8.29647 14.196L5.90126 12.8687C5.77688 12.8027 5.56818 12.75 5.32125 12.75C5.07219 12.75 4.86793 12.8035 4.75196 12.8669Z" fill="white"/>
</svg>
