<svg width="12" height="12" viewBox="0 0 12 12" fill="none" xmlns="http://www.w3.org/2000/svg">
<g clip-path="url(#clip0_3092_49021)">
<path fill-rule="evenodd" clip-rule="evenodd" d="M11.957 5.12286V0.885742H10.957V5.12286C10.957 6.1304 10.1403 6.94717 9.13273 6.94717H2.18531L4.51374 4.61874C4.709 4.42348 4.709 4.10689 4.51374 3.91163C4.31848 3.71637 4.00189 3.71637 3.80663 3.91163L0.624652 7.09361C0.42939 7.28887 0.42939 7.60546 0.624652 7.80072L3.80663 10.9827C4.00189 11.178 4.31848 11.178 4.51374 10.9827C4.709 10.7874 4.709 10.4709 4.51374 10.2756L2.18531 7.94717H9.13273C10.6925 7.94717 11.957 6.68268 11.957 5.12286Z" fill="white"/>
</g>
<defs>
<clipPath id="clip0_3092_49021">
<rect width="12" height="12" fill="white"/>
</clipPath>
</defs>
</svg>
