<svg width="21" height="24" viewBox="0 0 21 24" fill="none" xmlns="http://www.w3.org/2000/svg">
<path d="M10.5 15.19L13.6847 20.0234L16.6265 18.3747L12.4443 12L10.5 15.19Z" fill="#24A2EE"/>
<path d="M19.6825 16.4869L19.6804 15.1188L15.2141 7.98828L13.5562 10.8699L17.8677 18.0176L19.4275 17.0916C19.503 17.0289 19.5647 16.9505 19.6087 16.8616C19.6527 16.7728 19.6779 16.6754 19.6826 16.5759L19.6825 16.4869Z" fill="#24A2EE"/>
<path d="M0.286377 17.726L2.40983 19.0219L9.47612 7.02019L8.27689 6.98734C7.25511 6.97206 6.15437 7.25328 5.64922 8.12683L1.63651 14.7138L0.287153 16.9105V17.7267L0.286377 17.726Z" fill="#24A2EE"/>
<path d="M14.5859 6.98676L11.1432 6.99892L3.354 19.5028L6.07649 21.0278L6.8168 19.8062L14.5859 6.98676Z" fill="#24A2EE"/>
<path d="M20.708 7.40334C20.6928 7.07266 20.5942 6.75051 20.4208 6.46467C20.2473 6.17882 20.0042 5.93786 19.7125 5.76256L11.4348 1.18159C11.1393 1.04184 10.8144 0.969177 10.4852 0.969177C10.1559 0.969177 9.83107 1.04184 9.53557 1.18159C9.46645 1.21508 1.48566 5.66948 1.48566 5.66948C1.37478 5.72071 1.26872 5.78111 1.16868 5.84999C0.909542 6.02733 0.695528 6.25887 0.542714 6.52723C0.3899 6.79559 0.30226 7.09378 0.286377 7.39941V16.8868L1.70787 14.7841L1.69692 7.46403C1.70357 7.36368 1.73327 7.26599 1.78387 7.178C1.83447 7.09002 1.90472 7.01393 1.98956 6.95521C2.02713 6.92927 10.1442 2.40773 10.17 2.39531C10.2672 2.34979 10.3738 2.3259 10.4818 2.32541C10.5899 2.32492 10.6967 2.34784 10.7943 2.39248L18.965 6.91543C19.0601 6.97358 19.1393 7.05292 19.1959 7.14673C19.2525 7.24054 19.2848 7.34609 19.2901 7.45444V16.5227C19.2882 16.6167 19.2653 16.7092 19.2232 16.7941C19.1811 16.8789 19.1206 16.9541 19.0459 17.0147L17.461 17.898L16.644 18.354L13.7226 19.9833L10.7598 21.6357C10.596 21.6913 10.4169 21.6879 10.2555 21.6261L6.75026 19.686L6.03428 20.8546L9.18444 22.5999C9.28868 22.6568 9.38149 22.7075 9.45763 22.7487C9.5756 22.8116 9.65599 22.8548 9.68425 22.868C9.9478 22.9791 10.2327 23.0356 10.5205 23.0336C10.7844 23.0339 11.046 22.9866 11.2917 22.894L19.897 18.0982C20.1397 17.9165 20.3381 17.6857 20.4782 17.4222C20.6183 17.1587 20.6966 16.8688 20.7077 16.573L20.708 7.40334Z" fill="#24A2EE"/>
</svg>
