<svg width="20" height="21" viewBox="0 0 20 21" fill="none" xmlns="http://www.w3.org/2000/svg">
<path d="M10 2.11982C10.4129 2.1185 10.8178 2.23281 11.1691 2.4498C11.5203 2.66679 11.8038 2.97779 11.9874 3.3476L18.2371 15.8476C18.4067 16.1864 18.4868 16.563 18.4698 16.9414C18.4529 17.3199 18.3395 17.6878 18.1403 18.0101C17.9412 18.3324 17.663 18.5985 17.3321 18.783C17.0012 18.9675 16.6286 19.0643 16.2497 19.0643H3.75027C3.37142 19.0643 2.99884 18.9675 2.66795 18.783C2.33705 18.5985 2.05882 18.3324 1.85968 18.0101C1.66054 17.6878 1.54711 17.3199 1.53016 16.9414C1.51322 16.563 1.59332 16.1864 1.76285 15.8476L8.01259 3.3476C8.19619 2.97779 8.47967 2.66679 8.83091 2.4498C9.18216 2.23281 9.58714 2.1185 10 2.11982ZM10 0.592041C9.30368 0.591962 8.62108 0.785778 8.0287 1.15177C7.43631 1.51777 6.95752 2.04149 6.64598 2.66426L0.396245 15.1643C0.110222 15.736 -0.0248815 16.3714 0.0037679 17.0101C0.0324173 17.6488 0.223869 18.2695 0.559935 18.8134C0.896002 19.3572 1.36553 19.8061 1.9239 20.1174C2.48228 20.4287 3.11098 20.5921 3.75027 20.592H16.2497C16.889 20.5921 17.5177 20.4287 18.0761 20.1174C18.6345 19.8061 19.104 19.3572 19.4401 18.8134C19.7761 18.2695 19.9676 17.6488 19.9962 17.0101C20.0249 16.3714 19.8898 15.736 19.6038 15.1643L13.354 2.66426C13.0425 2.04149 12.5637 1.51777 11.9713 1.15177C11.3789 0.785778 10.6963 0.591962 10 0.592041Z" fill="#67C251"/>
</svg>
