<svg width="38" height="20" viewBox="0 0 38 20" fill="none" xmlns="http://www.w3.org/2000/svg">
<path d="M20.0228 19.0909C19.823 19.0909 19.6686 19.0273 19.5597 18.8999C19.4688 18.7544 19.4417 18.5909 19.478 18.4091L23.2368 0.681812C23.273 0.481814 23.3729 0.318152 23.5364 0.190828C23.6998 0.063649 23.8723 -1.14441e-05 24.0539 -1.14441e-05H31.2991C33.3147 -1.14441e-05 34.9308 0.418152 36.1474 1.25448C37.3822 2.09095 37.9996 3.29995 37.9996 4.88177C37.9996 5.33627 37.9452 5.80908 37.8362 6.29992C37.3822 8.39089 36.4653 9.93637 35.0852 10.9364C33.7233 11.9363 31.8529 12.4363 29.4742 12.4363H25.7971L24.5442 18.4091C24.5078 18.6091 24.4079 18.7726 24.2446 18.8999C24.0812 19.0273 23.9086 19.0909 23.7271 19.0909H20.0228ZM29.6649 8.67272C30.4274 8.67272 31.0902 8.46356 31.6532 8.0454C32.2343 7.62723 32.6156 7.02724 32.7972 6.24542C32.8516 5.93626 32.8789 5.66359 32.8789 5.42726C32.8789 4.89994 32.7246 4.49994 32.4158 4.22727C32.1071 3.93628 31.5806 3.79093 30.8361 3.79093H27.5675L26.5325 8.67272H29.6649Z" fill="#FE0420"/>
<path d="M7.56041 20C5.33894 20 3.5189 19.4814 2.10015 18.4444C0.70005 17.3889 0 15.8889 0 13.9444C0 13.537 0.0467091 13.037 0.139979 12.4444C0.38278 11.1111 0.728105 9.50917 1.1761 7.63884C2.44547 2.54627 5.72172 -1.14441e-05 11.0047 -1.14441e-05C12.4421 -1.14441e-05 13.7301 0.240702 14.8689 0.722127C16.0077 1.18505 16.9037 1.88883 17.557 2.83332C18.2104 3.75916 18.5372 4.87035 18.5372 6.16658C18.5372 6.55548 18.4905 7.04624 18.3971 7.63884C18.1171 9.28697 17.781 10.8889 17.389 12.4444C16.7357 14.9815 15.6063 16.8796 14.0008 18.1389C12.3954 19.3796 10.2487 20 7.56041 20ZM7.95244 16C8.99797 16 9.88456 15.6944 10.6127 15.0833C11.3594 14.4722 11.8914 13.537 12.2087 12.2778C12.638 10.537 12.9649 9.01842 13.1889 7.72218C13.2635 7.33328 13.3008 6.93521 13.3008 6.52765C13.3008 4.84252 12.414 3.99987 10.6407 3.99987C9.59519 3.99987 8.6992 4.30543 7.95244 4.91654C7.22449 5.52779 6.70173 6.46296 6.38446 7.72218C6.04839 8.96291 5.71232 10.4815 5.3764 12.2778C5.30163 12.6481 5.26432 13.037 5.26432 13.4444C5.26432 15.1482 6.16046 16 7.95244 16Z" fill="#FE0420"/>
</svg>
