<svg width="26" height="27" viewBox="0 0 26 27" fill="none" xmlns="http://www.w3.org/2000/svg">
<path d="M13 0.149658C5.824 0.149658 0 5.97366 0 13.1497C0 20.3257 5.824 26.1497 13 26.1497C20.176 26.1497 26 20.3257 26 13.1497C26 5.97366 20.176 0.149658 13 0.149658ZM11.336 17.5827C10.907 18.2717 10.153 18.6877 9.33399 18.6877H5.772C5.317 18.6877 5.03098 18.1937 5.26498 17.8037L12.558 5.31066C12.766 4.94666 13.286 4.92066 13.533 5.25866L15.561 7.97565C16.146 8.75565 16.185 9.80866 15.678 10.6407L11.336 17.5827ZM20.215 18.6877H15.223C14.768 18.6877 14.482 18.1937 14.716 17.7907L17.212 13.6307C17.446 13.2537 17.992 13.2537 18.226 13.6307L20.722 17.7907C20.956 18.1807 20.67 18.6877 20.215 18.6877Z" fill="#E74142"/>
</svg>
