<svg width="22" height="22" viewBox="0 0 22 22" fill="none" xmlns="http://www.w3.org/2000/svg">
<g clip-path="url(#clip0_9_526)">
<g clip-path="url(#clip1_9_526)">
<path d="M21.6685 13.5582C20.1993 19.4512 14.2307 23.0376 8.33696 21.568C2.44571 20.0989 -1.14067 14.1298 0.329134 8.23729C1.79764 2.34363 7.76632 -1.24302 13.6582 0.226136C19.5515 1.69529 23.1377 7.66498 21.6683 13.5583L21.6684 13.5582H21.6685Z" fill="#F7931A"/>
<path d="M15.8493 9.32988C16.0682 7.86599 14.9537 7.0791 13.4297 6.55416L13.9241 4.5712L12.717 4.27042L12.2358 6.20118C11.9184 6.12203 11.5925 6.04745 11.2686 5.97352L11.7534 4.03003L10.5471 3.72925L10.0524 5.71156C9.7898 5.65177 9.53188 5.59268 9.28164 5.53042L9.28304 5.52418L7.61844 5.1085L7.29734 6.39775C7.29734 6.39775 8.1929 6.60304 8.17402 6.61567C8.66283 6.73767 8.75122 7.06125 8.73654 7.31772L8.17338 9.57678C8.20704 9.58533 8.2507 9.5977 8.29887 9.61705C8.2586 9.60705 8.21575 9.59614 8.17128 9.58549L7.38191 12.7501C7.32218 12.8986 7.17055 13.1215 6.8288 13.0369C6.8409 13.0544 5.95147 12.8179 5.95147 12.8179L5.35217 14.1996L6.923 14.5912C7.21523 14.6645 7.5016 14.7412 7.78361 14.8133L7.28411 16.819L8.4898 17.1198L8.98447 15.1354C9.31385 15.2248 9.6335 15.3073 9.94643 15.385L9.45343 17.3601L10.6606 17.6608L11.16 15.6589C13.2184 16.0485 14.7661 15.8914 15.4175 14.0296C15.9425 12.5307 15.3914 11.6661 14.3085 11.1023C15.0972 10.9204 15.6913 10.4016 15.8497 9.33004L15.8493 9.32977L15.8493 9.32988ZM13.0914 13.1972C12.7183 14.6961 10.1946 13.8859 9.37633 13.6827L10.0392 11.0255C10.8574 11.2297 13.4812 11.6339 13.0914 13.1972H13.0914ZM13.4647 9.30816C13.1244 10.6716 11.0238 9.97891 10.3424 9.80906L10.9434 7.39913C11.6248 7.56898 13.8192 7.88599 13.4648 9.30816H13.4647Z" fill="white"/>
</g>
</g>
<defs>
<clipPath id="clip0_9_526">
<rect width="22.0004" height="22.0004" fill="white" transform="translate(-0.000396729 -0.000244141)"/>
</clipPath>
<clipPath id="clip1_9_526">
<rect width="21.9979" height="22.0004" fill="white" transform="translate(-0.000305176 -0.103027)"/>
</clipPath>
</defs>
</svg>
