<svg width="62" height="62" viewBox="0 0 62 62" fill="none" xmlns="http://www.w3.org/2000/svg">
<circle cx="31" cy="31" r="31" fill="url(#paint0_linear_23_1115)"/>
<path d="M45.6016 16.9688H41.8281V15.3281C41.8281 15.1477 41.6805 15 41.5 15H20.5C20.3195 15 20.1719 15.1477 20.1719 15.3281V16.9688H16.3984C15.9198 16.9688 15.4608 17.1589 15.1223 17.4973C14.7839 17.8358 14.5938 18.2948 14.5938 18.7734V24.8438C14.5938 28.1947 17.0547 30.9797 20.2621 31.4883C20.8937 36.2543 24.7246 40.0113 29.5234 40.5322V44.8471H21.4844C20.7584 44.8471 20.1719 45.4336 20.1719 46.1596V47.4844C20.1719 47.6648 20.3195 47.8125 20.5 47.8125H41.5C41.6805 47.8125 41.8281 47.6648 41.8281 47.4844V46.1596C41.8281 45.4336 41.2416 44.8471 40.5156 44.8471H32.4766V40.5322C37.2754 40.0113 41.1062 36.2543 41.7379 31.4883C44.9453 30.9797 47.4062 28.1947 47.4062 24.8438V18.7734C47.4062 18.2948 47.2161 17.8358 46.8777 17.4973C46.5392 17.1589 46.0802 16.9688 45.6016 16.9688ZM20.1719 28.4367C18.6502 27.9486 17.5469 26.5213 17.5469 24.8438V19.9219H20.1719V28.4367ZM44.4531 24.8438C44.4531 26.5254 43.3498 27.9527 41.8281 28.4367V19.9219H44.4531V24.8438Z" fill="white"/>
<defs>
<linearGradient id="paint0_linear_23_1115" x1="10.5" y1="9.5" x2="59.5" y2="57.5" gradientUnits="userSpaceOnUse">
<stop stop-color="#F09F72"/>
<stop offset="0.633763" stop-color="#EEE4DF"/>
<stop offset="1" stop-color="#D78455"/>
</linearGradient>
</defs>
</svg>
