<svg width="25" height="26" viewBox="0 0 25 26" fill="none" xmlns="http://www.w3.org/2000/svg">
<path d="M7.52841 10.9577L12.2765 6.17684L17.0272 10.9602L19.7899 8.17829L12.2765 0.612549L4.76562 8.17576L7.52841 10.9577Z" fill="#F3BA2F"/>
<path d="M5.57896 12.9325L2.81622 10.1506L0.0533507 12.9327L2.81609 15.7146L5.57896 12.9325Z" fill="#F3BA2F"/>
<path d="M7.53002 14.8912L12.2781 19.6721L17.0286 14.8889L19.7929 17.6693L19.7916 17.6709L12.2781 25.2364L4.76705 17.6734L4.76318 17.6695L7.53002 14.8912Z" fill="#F3BA2F"/>
<path d="M21.7371 15.7159L24.5 12.9338L21.7373 10.1519L18.9744 12.934L21.7371 15.7159Z" fill="#F3BA2F"/>
<path d="M15.0799 12.9228H15.0811L12.2775 10.0999L10.2057 12.1861H10.2055L9.96759 12.4258L9.47652 12.9203L9.47266 12.9242L9.47652 12.9283L12.2775 15.7487L15.0811 12.9258L15.0824 12.9242L15.0799 12.9228Z" fill="#F3BA2F"/>
</svg>
