<svg width="191" height="32" viewBox="0 0 191 32" fill="none" xmlns="http://www.w3.org/2000/svg">
<g filter="url(#filter0_i_24_6968)">
<path fill-rule="evenodd" clip-rule="evenodd" d="M32.326 17.0225C32.3483 16.6833 32.3596 16.3411 32.3596 15.9964C32.3596 15.5786 32.343 15.1645 32.3104 14.7549H16.5607C15.9344 14.7549 15.4267 15.2626 15.4267 15.8889C15.4267 16.5152 15.9344 17.0229 16.5607 17.0229H19.3908V17.0225H32.326ZM30.6569 23.0599C30.2535 23.847 29.7848 24.5965 29.2577 25.3018H17.9932C13.9438 25.3018 10.6611 22.0191 10.6611 17.9697C10.6611 13.9204 13.9438 10.6377 17.9932 10.6377H31.4054C31.6716 11.3589 31.8856 12.1045 32.0429 12.8701H16.5607C14.8935 12.8701 13.542 14.2217 13.542 15.8889C13.542 17.5561 14.8935 18.9076 16.5607 18.9076H28.0045V18.9072H32.0856C31.9374 19.6847 31.7308 20.4422 31.4706 21.1752H14.7312V23.0599H30.6569ZM27.6032 27.1865C24.6766 30.036 20.6388 31.7976 16.1798 31.7976C7.24394 31.7976 0 24.7231 0 15.9964C0 7.26971 7.24394 0.195312 16.1798 0.195312C22.4423 0.195312 27.8738 3.66999 30.5632 8.75295H17.9932C12.9029 8.75295 8.77639 12.8794 8.77639 17.9697C8.77639 23.06 12.9029 27.1865 17.9932 27.1865H27.6032Z" fill="url(#paint0_diamond_24_6968)"/>
<path fill-rule="evenodd" clip-rule="evenodd" d="M32.326 17.0225C32.3483 16.6833 32.3596 16.3411 32.3596 15.9964C32.3596 15.5786 32.343 15.1645 32.3104 14.7549H16.5607C15.9344 14.7549 15.4267 15.2626 15.4267 15.8889C15.4267 16.5152 15.9344 17.0229 16.5607 17.0229H19.3908V17.0225H32.326ZM30.6569 23.0599C30.2535 23.847 29.7848 24.5965 29.2577 25.3018H17.9932C13.9438 25.3018 10.6611 22.0191 10.6611 17.9697C10.6611 13.9204 13.9438 10.6377 17.9932 10.6377H31.4054C31.6716 11.3589 31.8856 12.1045 32.0429 12.8701H16.5607C14.8935 12.8701 13.542 14.2217 13.542 15.8889C13.542 17.5561 14.8935 18.9076 16.5607 18.9076H28.0045V18.9072H32.0856C31.9374 19.6847 31.7308 20.4422 31.4706 21.1752H14.7312V23.0599H30.6569ZM27.6032 27.1865C24.6766 30.036 20.6388 31.7976 16.1798 31.7976C7.24394 31.7976 0 24.7231 0 15.9964C0 7.26971 7.24394 0.195312 16.1798 0.195312C22.4423 0.195312 27.8738 3.66999 30.5632 8.75295H17.9932C12.9029 8.75295 8.77639 12.8794 8.77639 17.9697C8.77639 23.06 12.9029 27.1865 17.9932 27.1865H27.6032Z" fill="url(#paint1_diamond_24_6968)"/>
</g>
<path d="M38.2073 14.6697C38.2073 19.0015 40.6613 21.3812 46.3875 21.3812C51.5745 21.3812 54.1773 19.3919 54.512 15.6179H51.1097C50.7937 17.7373 49.1576 18.5739 46.3875 18.5739C43.0039 18.5739 41.5537 17.3469 41.5537 14.6697C41.5537 12.0111 42.9853 10.8027 46.3875 10.8027C49.1762 10.8027 50.7937 11.6207 51.1097 13.7215H54.512C54.1773 9.96608 51.5745 7.99538 46.3875 7.99538C40.6613 7.99538 38.2073 10.3565 38.2073 14.6697ZM70.6051 8.1813V13.2754H60.0079V8.1813H56.6615V21.1953H60.0079V16.1013H70.6051V21.1953H73.9515V8.1813H70.6051ZM89.9294 21.1953H93.6291L86.899 8.1813H82.3813L75.6698 21.1953H79.3509L80.7452 18.4252H88.5351L89.9294 21.1953ZM81.9909 15.9339L84.6494 10.654L87.2894 15.9339H81.9909ZM98.705 8.1813H95.3586V21.1953H98.705V8.1813ZM114.541 8.1813V17.9604L105.654 8.1813H101.118V21.1953H104.464V11.4348L113.332 21.1953H117.887V8.1813H114.541ZM119.926 16.7148C119.926 20.4702 123.105 21.3812 128.441 21.3812C133.256 21.3812 136.547 20.6748 136.547 17.1982C136.547 13.9075 133.368 13.6286 128.237 13.3497C124.444 13.1266 123.663 12.9407 123.663 11.9368C123.663 10.97 124.444 10.654 127.735 10.654C131.211 10.654 132.643 11.0072 132.643 12.4387H135.989C135.989 9.22242 133.015 7.99538 128.106 7.99538C123.235 7.99538 120.317 8.90636 120.317 11.7694C120.317 14.6883 122.566 15.5807 128.237 15.841C132.457 16.0455 133.2 16.2314 133.2 17.3097C133.2 18.3322 132.141 18.7226 128.627 18.7226C124.388 18.7226 123.273 18.0905 123.273 16.7148H119.926ZM148.914 8.1813H138.689V21.1953H142.035V17.7187H148.914C151.87 17.7187 153.897 15.8596 153.897 12.9593C153.897 10.059 151.87 8.1813 148.914 8.1813ZM147.985 14.9114H142.035V10.9886H147.985C148.989 10.9886 150.55 10.9886 150.55 12.9593C150.55 14.9114 148.989 14.9114 147.985 14.9114ZM163.917 21.3812C169.624 21.3812 172.097 18.9829 172.097 14.6697C172.097 10.3751 169.624 7.99538 163.917 7.99538C158.191 7.99538 155.736 10.3565 155.736 14.6697C155.736 19.0015 158.191 21.3812 163.917 21.3812ZM163.917 18.5739C160.44 18.5739 159.083 17.3469 159.083 14.6697C159.083 12.0111 160.422 10.8027 163.917 10.8027C167.412 10.8027 168.75 12.0297 168.75 14.6697C168.75 17.3283 167.393 18.5739 163.917 18.5739ZM189.213 8.1813H173.224V10.9886H179.545V21.1953H182.892V10.9886H189.213V8.1813Z" fill="#262B40"/>
<defs>
<filter id="filter0_i_24_6968" x="0" y="0.195312" width="32.3594" height="31.6021" filterUnits="userSpaceOnUse" color-interpolation-filters="sRGB">
<feFlood flood-opacity="0" result="BackgroundImageFix"/>
<feBlend mode="normal" in="SourceGraphic" in2="BackgroundImageFix" result="shape"/>
<feColorMatrix in="SourceAlpha" type="matrix" values="0 0 0 0 0 0 0 0 0 0 0 0 0 0 0 0 0 0 127 0" result="hardAlpha"/>
<feOffset/>
<feGaussianBlur stdDeviation="2.84177"/>
<feComposite in2="hardAlpha" operator="arithmetic" k2="-1" k3="1"/>
<feColorMatrix type="matrix" values="0 0 0 0 0.160349 0 0 0 0 0.114062 0 0 0 0 0.9125 0 0 0 1 0"/>
<feBlend mode="normal" in2="shape" result="effect1_innerShadow_24_6968"/>
</filter>
<radialGradient id="paint0_diamond_24_6968" cx="0" cy="0" r="1" gradientUnits="userSpaceOnUse" gradientTransform="translate(-6.06742 28.471) rotate(-21.8772) scale(55.518 54.5838)">
<stop offset="0.421875" stop-color="#402AFD"/>
<stop offset="1" stop-color="#0EFFD4"/>
</radialGradient>
<radialGradient id="paint1_diamond_24_6968" cx="0" cy="0" r="1" gradientUnits="userSpaceOnUse" gradientTransform="translate(10.0112 7.50333) rotate(-25.7242) scale(25.2558 13.1771)">
<stop stop-color="#AAFCFF"/>
<stop offset="1" stop-color="white" stop-opacity="0"/>
</radialGradient>
</defs>
</svg>
