<svg width="330" height="27" viewBox="0 0 330 27" fill="none" xmlns="http://www.w3.org/2000/svg">
<path d="M41.0805 16.5872H34.1981C33.3911 16.5872 32.7052 16.3228 32.1403 15.794C31.5754 15.2538 31.293 14.5813 31.293 13.7766V10.5177C31.293 9.71298 31.5754 9.04624 32.1403 8.51746C32.7052 7.97717 33.3911 7.70703 34.1981 7.70703H41.0805V9.7762H34.1981C33.6447 9.7762 33.3681 10.0234 33.3681 10.5177V13.7766C33.3681 14.2709 33.6447 14.518 34.1981 14.518H41.0805V16.5872Z" fill="white"/>
<path d="M53.7767 16.5872H51.6671V13.1731H44.8884V16.5872H42.8134V7.70703H44.8884V11.1039H51.6671V7.70703H53.7767V16.5872Z" fill="white"/>
<path d="M66.4105 16.5872H64.3354V13.7594H58.871V11.6902H64.3354V10.4487C64.3354 10.0004 64.1855 9.7762 63.8858 9.7762H58.0064C57.7181 9.7762 57.574 10.0004 57.574 10.4487V16.5872H55.499V10.4487C55.499 9.70148 55.7295 9.05774 56.1906 8.51746C56.6633 7.97717 57.2685 7.70703 58.0064 7.70703H63.8858C64.6351 7.70703 65.2403 7.97717 65.7015 8.51746C66.1741 9.05774 66.4105 9.70148 66.4105 10.4487V16.5872Z" fill="white"/>
<path d="M70.209 16.5872H68.1339V7.70703H70.209V16.5872Z" fill="white"/>
<path d="M81.4304 16.5872H79.3553L74.012 10.6039V16.5872H71.9369V7.70703H74.012L79.3553 13.6387V7.70703H81.4304V16.5872Z" fill="white"/>
<path d="M93.7708 13.8456C93.7708 14.5928 93.546 15.2308 93.0964 15.7596C92.6122 16.3113 92.0012 16.5872 91.2634 16.5872H83.5856V14.518H91.2634C91.5516 14.518 91.6957 14.2939 91.6957 13.8456C91.6957 13.3972 91.5516 13.1731 91.2634 13.1731H85.678C84.9402 13.1731 84.3292 12.8972 83.845 12.3454C83.3839 11.8281 83.1533 11.1959 83.1533 10.4487C83.1533 9.70148 83.3896 9.05774 83.8623 8.51746C84.3349 7.97717 84.9402 7.70703 85.678 7.70703H93.3558V9.7762H85.678C85.3898 9.7762 85.2457 10.0004 85.2457 10.4487C85.2457 10.8855 85.3898 11.1039 85.678 11.1039H91.2634C92.0012 11.1039 92.6122 11.3798 93.0964 11.9316C93.546 12.4604 93.7708 13.0984 93.7708 13.8456Z" fill="white"/>
<path d="M106.637 10.7073C106.637 11.5005 106.418 12.1787 105.98 12.742C105.508 13.3743 104.885 13.6904 104.113 13.6904H97.5762V16.5872H95.5011V7.70703H104.113C104.885 7.70703 105.508 8.02315 105.98 8.6554C106.418 9.23017 106.637 9.91415 106.637 10.7073ZM104.562 10.7073C104.562 10.0866 104.412 9.7762 104.113 9.7762H97.5762V11.6212H104.113C104.412 11.6212 104.562 11.3166 104.562 10.7073Z" fill="white"/>
<path d="M119.405 13.7766C119.405 14.5813 119.123 15.2538 118.558 15.794C117.993 16.3228 117.307 16.5872 116.5 16.5872H111.278C110.471 16.5872 109.785 16.3228 109.22 15.794C108.655 15.2538 108.372 14.5813 108.372 13.7766V10.5177C108.372 9.71298 108.655 9.04624 109.22 8.51746C109.785 7.97717 110.471 7.70703 111.278 7.70703H116.5C117.307 7.70703 117.993 7.97717 118.558 8.51746C119.123 9.04624 119.405 9.71298 119.405 10.5177V13.7766ZM117.33 13.7766V10.5177C117.33 10.0234 117.053 9.7762 116.5 9.7762H111.278C110.724 9.7762 110.448 10.0234 110.448 10.5177V13.7766C110.448 14.2709 110.724 14.518 111.278 14.518H116.5C117.053 14.518 117.33 14.2709 117.33 13.7766Z" fill="white"/>
<path d="M130.999 9.7762H126.987V16.5872H124.912V9.7762H120.9V7.70703H130.999V9.7762Z" fill="white"/>
<path d="M57.3331 11.6899H59.3577V13.7584H57.3331V11.6899Z" fill="white"/>
<path fill-rule="evenodd" clip-rule="evenodd" d="M26.0444 13.8887C26.0643 13.595 26.0744 13.2987 26.0744 13C26.0744 12.6415 26.0598 12.2863 26.0313 11.9352H12.7412C12.5545 11.9352 12.4032 12.0861 12.4032 12.2724V13.552C12.4032 13.7382 12.5545 13.8892 12.7412 13.8892H15.6296V13.8887H26.0444ZM24.7242 18.7677C24.3862 19.4474 23.9904 20.0933 23.5431 20.6992H12.1138C10.1529 20.6992 8.56334 19.113 8.56334 17.1565V12.0892C8.56334 10.1326 10.1529 8.54648 12.1138 8.54648H25.2893C25.5164 9.16778 25.6975 9.81121 25.8282 10.4727H12.7412C11.745 10.4727 10.9375 11.2784 10.9375 12.2724V13.552C10.9375 14.5459 11.745 15.3517 12.7412 15.3517H22.5645V15.3512H25.8617C25.7388 16.0219 25.5643 16.6747 25.3425 17.3052H11.8751V18.7677H24.7242ZM22.2866 22.1617C19.9249 24.5323 16.6529 26 13.0372 26C5.83695 26 0 20.1797 0 13C0 5.8203 5.83695 0 13.0372 0C18.1008 0 22.4901 2.8785 24.6493 7.08398H12.1138C9.34345 7.08398 7.09766 9.3249 7.09766 12.0892V17.1565C7.09766 19.9208 9.34345 22.1617 12.1138 22.1617H22.2866Z" fill="white"/>
<path d="M220.511 19.2405L219.314 16.5278H211.519L210.321 19.2405H207.004L212.901 6.23467H218.042L223.939 19.2405H220.511ZM212.643 13.9824H218.208L215.425 7.66531L212.643 13.9824Z" fill="white"/>
<path d="M227.637 14.7813C227.735 15.4007 228.134 15.9271 228.835 16.3606C229.535 16.7818 230.548 16.9923 231.875 16.9923C232.87 16.9923 233.736 16.887 234.474 16.6765C235.211 16.4659 235.579 16.1439 235.579 15.7103C235.579 15.1777 234.959 14.7752 233.718 14.5026L228.964 13.4064C226.396 12.8119 225.112 11.6352 225.112 9.8763C225.112 8.58811 225.714 7.62196 226.918 6.97786C228.122 6.33377 229.633 6.01172 231.451 6.01172C233.392 6.01172 234.99 6.38331 236.243 7.1265C237.508 7.8573 238.214 8.89777 238.362 10.2479L235.192 10.378C235.082 9.85772 234.695 9.41181 234.031 9.04021C233.38 8.66862 232.477 8.48282 231.322 8.48282C230.487 8.48282 229.799 8.58811 229.259 8.79868C228.73 9.00925 228.466 9.30033 228.466 9.67192C228.466 10.1922 229.062 10.5885 230.254 10.861L234.658 11.8272C236.095 12.1492 237.164 12.5827 237.864 13.1278C238.577 13.6728 238.933 14.4407 238.933 15.4316C238.933 16.7818 238.3 17.7913 237.035 18.4601C235.782 19.129 234.062 19.4634 231.875 19.4634C227.195 19.4634 224.725 17.9337 224.467 14.8742L227.637 14.7813Z" fill="white"/>
<path d="M239.474 9.00305V6.23467H253.866V9.00305H248.356V19.2405H245.002V9.00305H239.474Z" fill="white"/>
<path d="M255.949 19.2405V6.23467H268.756V8.87299H259.303V11.3813H266.729V13.8709H259.303V16.6022H269.125V19.2405H255.949Z" fill="white"/>
<path d="M282.294 19.2405L277.816 14.4655H274.941V19.2405H271.587V6.23467H274.941H280.617C282.128 6.23467 283.369 6.58769 284.339 7.29372C285.31 7.99975 285.795 9.0526 285.795 10.4523C285.795 11.6909 285.426 12.6323 284.689 13.2764C283.952 13.9081 282.939 14.2859 281.649 14.4098L286.551 19.2405H282.294ZM274.941 8.92873V11.9201H280.451C281.065 11.9201 281.551 11.7962 281.907 11.5485C282.263 11.2884 282.441 10.923 282.441 10.4523C282.441 9.9692 282.257 9.5976 281.888 9.33749C281.532 9.06499 281.053 8.92873 280.451 8.92873H274.941Z" fill="white"/>
<path d="M288.449 19.2405V6.23467H291.803V19.2405H288.449Z" fill="white"/>
<path d="M298.629 16.4721H308.138V19.2405H293.801V16.8994L303.034 9.00305H294.428V6.23467H307.88V8.57572L298.629 16.4721Z" fill="white"/>
<path d="M324.138 6.23467H329.998L329.98 19.2405H326.773V7.99975L322.369 19.2405H317.818L313.413 7.99975V19.2405H310.188V6.23467H316.067L320.139 17.3453L324.138 6.23467Z" fill="white"/>
<path fill-rule="evenodd" clip-rule="evenodd" d="M197.306 1.27775C195.122 2.53769 191.079 4.89122 190.044 5.50474C189.003 6.1216 188.493 6.86209 188.383 7.91738C188.36 8.14216 188.34 9.12753 188.34 10.107C188.339 11.8631 188.338 11.8908 188.239 12.0914C188.184 12.2032 188.075 12.3606 187.995 12.4411C187.816 12.623 187.436 12.7446 187.171 12.7046C187.045 12.6855 186.499 12.3978 185.46 11.803C183.729 10.8126 183.352 10.6144 183.07 10.5458C182.523 10.4131 181.924 10.4369 181.383 10.6125C181.156 10.6864 179.864 11.4127 178.006 12.511C177.094 13.0502 177.004 13.1371 177.003 13.4766C177.003 13.914 176.69 13.7079 182.228 16.9203C186.132 19.1853 187.332 19.8615 187.549 19.9197C187.727 19.9672 188.011 19.9959 188.323 19.9978C189.124 20.0028 189.239 19.9559 191.253 18.8005C192.864 17.8763 193.007 17.8031 193.253 17.7806C193.483 17.7596 193.549 17.7729 193.767 17.8842C194.022 18.0139 194.177 18.1752 194.279 18.4161C194.321 18.5155 194.342 19.0957 194.362 20.6706C194.387 22.7251 194.391 22.801 194.49 23.1037C194.645 23.5817 194.868 23.9744 195.171 24.3033C195.424 24.578 195.587 24.6846 197.195 25.6285C199.451 26.9523 199.606 27.0331 199.821 26.9925C200.036 26.9517 200.281 26.7322 200.341 26.5261C200.374 26.4129 200.384 24.5718 200.375 20.5143L200.361 14.6658L200.236 14.3086C200.053 13.7849 199.876 13.5008 199.501 13.1249C199.149 12.7724 199.05 12.7092 196.842 11.4243C196.314 11.117 195.811 10.7908 195.71 10.6908C195.392 10.3738 195.335 9.85717 195.574 9.44594C195.709 9.21464 195.706 9.21674 196.841 8.55045C198.867 7.36069 199.237 7.12845 199.469 6.8983C199.779 6.59051 200.099 6.06691 200.241 5.63582L200.354 5.29022L200.358 2.90169C200.36 1.58799 200.346 0.457705 200.327 0.389978C200.273 0.196396 199.969 -0.000312146 199.723 3.71892e-07C199.538 0.000223599 199.322 0.114069 197.306 1.27775ZM194.38 10.0258C194.441 10.0868 194.45 10.2935 194.45 11.6137C194.45 13.1575 194.435 13.3051 194.282 13.303C194.24 13.3025 193.608 12.9532 192.878 12.5267C191.649 11.8099 191.549 11.7423 191.549 11.6299C191.549 11.5174 191.649 11.4499 192.878 10.733C193.608 10.3066 194.23 9.95727 194.258 9.95669C194.287 9.95611 194.342 9.98723 194.38 10.0258ZM191.341 11.8397C191.417 11.9165 191.417 14.9595 191.341 15.0363C191.312 15.0658 191.247 15.0894 191.197 15.0888C191.081 15.0875 188.564 13.6203 188.499 13.5161C188.464 13.4608 188.464 13.4162 188.497 13.363C188.561 13.2611 191.083 11.7893 191.197 11.7876C191.247 11.7868 191.312 11.8102 191.341 11.8397ZM194.396 13.6255C194.436 13.6651 194.45 14.0832 194.45 15.2296C194.45 16.5796 194.441 16.7891 194.38 16.8502C194.342 16.8888 194.295 16.9203 194.277 16.9203C194.258 16.9203 193.876 16.7072 193.427 16.4467C192.979 16.1862 192.378 15.8396 192.091 15.6766C191.57 15.3798 191.443 15.2462 191.564 15.1243C191.669 15.0184 194.168 13.579 194.253 13.5756C194.303 13.5736 194.367 13.5961 194.396 13.6255Z" fill="white"/>
<line x1="161.822" y1="4.07621" x2="146.973" y2="18.9254" stroke="white"/>
<line x1="161.826" y1="18.9258" x2="146.977" y2="4.07658" stroke="white"/>
</svg>
