<svg width="182" height="36" viewBox="0 0 182 36" fill="none" xmlns="http://www.w3.org/2000/svg">
<path d="M57.7344 22.9636H48.225C47.11 22.9636 46.1622 22.5975 45.3817 21.8654C44.6012 21.1173 44.2109 20.1861 44.2109 19.072V14.5596C44.2109 13.4454 44.6012 12.5223 45.3817 11.7901C46.1622 11.042 47.11 10.668 48.225 10.668H57.7344V13.533H48.225C47.4604 13.533 47.0781 13.8752 47.0781 14.5596V19.072C47.0781 19.7564 47.4604 20.0986 48.225 20.0986H57.7344V22.9636Z" fill="white"/>
<path d="M75.277 22.9636H72.362V18.2364H62.9959V22.9636H60.1288V10.668H62.9959V15.3713H72.362V10.668H75.277V22.9636Z" fill="white"/>
<path d="M92.7331 22.9636H89.8659V19.0481H82.3157V16.1831H89.8659V14.4641C89.8659 13.8433 89.6589 13.533 89.2447 13.533H81.1211C80.7229 13.533 80.5237 13.8433 80.5237 14.4641V22.9636H77.6566V14.4641C77.6566 13.4295 77.9751 12.5382 78.6123 11.7901C79.2654 11.042 80.1016 10.668 81.1211 10.668H89.2447C90.2801 10.668 91.1163 11.042 91.7535 11.7901C92.4066 12.5382 92.7331 13.4295 92.7331 14.4641V22.9636Z" fill="white"/>
<path d="M97.9816 22.9636H95.1144V10.668H97.9816V22.9636Z" fill="white"/>
<path d="M113.486 22.9636H110.619L103.236 14.679V22.9636H100.369V10.668H103.236L110.619 18.881V10.668H113.486V22.9636Z" fill="white"/>
<path d="M130.537 19.1675C130.537 20.2021 130.227 21.0854 129.605 21.8176C128.936 22.5816 128.092 22.9636 127.073 22.9636H116.464V20.0986H127.073C127.471 20.0986 127.67 19.7882 127.67 19.1675C127.67 18.5467 127.471 18.2364 127.073 18.2364H119.355C118.336 18.2364 117.492 17.8544 116.823 17.0904C116.185 16.3741 115.867 15.4987 115.867 14.4641C115.867 13.4295 116.193 12.5382 116.846 11.7901C117.5 11.042 118.336 10.668 119.355 10.668H129.964V13.533H119.355C118.957 13.533 118.758 13.8433 118.758 14.4641C118.758 15.0689 118.957 15.3713 119.355 15.3713H127.073C128.092 15.3713 128.936 15.7534 129.605 16.5174C130.227 17.2495 130.537 18.1329 130.537 19.1675Z" fill="white"/>
<path d="M148.315 14.8222C148.315 15.9205 148.012 16.8596 147.407 17.6395C146.754 18.5149 145.894 18.9526 144.827 18.9526H135.795V22.9636H132.928V10.668H144.827C145.894 10.668 146.754 11.1057 147.407 11.9811C148.012 12.7769 148.315 13.724 148.315 14.8222ZM145.448 14.8222C145.448 13.9627 145.241 13.533 144.827 13.533H135.795V16.0876H144.827C145.241 16.0876 145.448 15.6658 145.448 14.8222Z" fill="white"/>
<path d="M165.956 19.072C165.956 20.1861 165.566 21.1173 164.785 21.8654C164.005 22.5975 163.057 22.9636 161.942 22.9636H154.726C153.611 22.9636 152.664 22.5975 151.883 21.8654C151.103 21.1173 150.712 20.1861 150.712 19.072V14.5596C150.712 13.4454 151.103 12.5223 151.883 11.7901C152.664 11.042 153.611 10.668 154.726 10.668H161.942C163.057 10.668 164.005 11.042 164.785 11.7901C165.566 12.5223 165.956 13.4454 165.956 14.5596V19.072ZM163.089 19.072V14.5596C163.089 13.8752 162.707 13.533 161.942 13.533H154.726C153.962 13.533 153.58 13.8752 153.58 14.5596V19.072C153.58 19.7564 153.962 20.0986 154.726 20.0986H161.942C162.707 20.0986 163.089 19.7564 163.089 19.072Z" fill="white"/>
<path d="M181.976 13.533H176.433V22.9636H173.566V13.533H168.022V10.668H181.976V13.533Z" fill="white"/>
<path d="M80.1909 16.1827H82.9882V19.0468H80.1909V16.1827Z" fill="white"/>
<g filter="url(#filter0_i_514_28052)">
<path fill-rule="evenodd" clip-rule="evenodd" d="M36.9584 19.2305C36.9859 18.8239 36.9999 18.4136 36.9999 18C36.9999 17.5034 36.9797 17.0115 36.9402 16.525H18.5781C18.3202 16.525 18.1111 16.7341 18.1111 16.992V18.7637C18.1111 19.0216 18.3202 19.2306 18.5781 19.2306H22.5631V19.2305H36.9584ZM35.1343 25.9861C34.6673 26.9271 34.1204 27.8215 33.5023 28.6604H17.7121C15.0027 28.6604 12.8064 26.4642 12.8064 23.7551V16.7389C12.8064 14.0298 15.0027 11.8336 17.7121 11.8336H35.9151C36.2289 12.6937 36.479 13.5844 36.6595 14.5H18.5781C17.2017 14.5 16.0859 15.6157 16.0859 16.992V18.7637C16.0859 20.1399 17.2017 21.2556 18.5781 21.2556H32.151V21.2555H36.706C36.5362 22.1842 36.2951 23.088 35.9886 23.9611H17.3754V25.9861H35.1343ZM31.7662 30.6854C28.5031 33.9677 23.9822 36 18.9863 36C9.03762 36 0.972656 27.9411 0.972656 18C0.972656 8.05887 9.03762 0 18.9863 0C25.9826 0 32.0474 3.98561 35.0308 9.80859H17.7121C13.8843 9.80859 10.7812 12.9114 10.7812 16.7389V23.7551C10.7812 27.5826 13.8843 30.6854 17.7121 30.6854H31.7662Z" fill="url(#paint0_diamond_514_28052)"/>
<path fill-rule="evenodd" clip-rule="evenodd" d="M36.9584 19.2305C36.9859 18.8239 36.9999 18.4136 36.9999 18C36.9999 17.5034 36.9797 17.0115 36.9402 16.525H18.5781C18.3202 16.525 18.1111 16.7341 18.1111 16.992V18.7637C18.1111 19.0216 18.3202 19.2306 18.5781 19.2306H22.5631V19.2305H36.9584ZM35.1343 25.9861C34.6673 26.9271 34.1204 27.8215 33.5023 28.6604H17.7121C15.0027 28.6604 12.8064 26.4642 12.8064 23.7551V16.7389C12.8064 14.0298 15.0027 11.8336 17.7121 11.8336H35.9151C36.2289 12.6937 36.479 13.5844 36.6595 14.5H18.5781C17.2017 14.5 16.0859 15.6157 16.0859 16.992V18.7637C16.0859 20.1399 17.2017 21.2556 18.5781 21.2556H32.151V21.2555H36.706C36.5362 22.1842 36.2951 23.088 35.9886 23.9611H17.3754V25.9861H35.1343ZM31.7662 30.6854C28.5031 33.9677 23.9822 36 18.9863 36C9.03762 36 0.972656 27.9411 0.972656 18C0.972656 8.05887 9.03762 0 18.9863 0C25.9826 0 32.0474 3.98561 35.0308 9.80859H17.7121C13.8843 9.80859 10.7812 12.9114 10.7812 16.7389V23.7551C10.7812 27.5826 13.8843 30.6854 17.7121 30.6854H31.7662Z" fill="url(#paint1_diamond_514_28052)"/>
</g>
<defs>
<filter id="filter0_i_514_28052" x="0.972656" y="0" width="36.0273" height="36" filterUnits="userSpaceOnUse" color-interpolation-filters="sRGB">
<feFlood flood-opacity="0" result="BackgroundImageFix"/>
<feBlend mode="normal" in="SourceGraphic" in2="BackgroundImageFix" result="shape"/>
<feColorMatrix in="SourceAlpha" type="matrix" values="0 0 0 0 0 0 0 0 0 0 0 0 0 0 0 0 0 0 127 0" result="hardAlpha"/>
<feOffset/>
<feGaussianBlur stdDeviation="2.71594"/>
<feComposite in2="hardAlpha" operator="arithmetic" k2="-1" k3="1"/>
<feColorMatrix type="matrix" values="0 0 0 0 0.160349 0 0 0 0 0.114062 0 0 0 0 0.9125 0 0 0 1 0"/>
<feBlend mode="normal" in2="shape" result="effect1_innerShadow_514_28052"/>
</filter>
<radialGradient id="paint0_diamond_514_28052" cx="0" cy="0" r="1" gradientUnits="userSpaceOnUse" gradientTransform="translate(-5.78244 32.2105) rotate(-22.3351) scale(62.0114 61.9781)">
<stop offset="0.421875" stop-color="#402AFD"/>
<stop offset="1" stop-color="#0EFFD4"/>
</radialGradient>
<radialGradient id="paint1_diamond_514_28052" cx="0" cy="0" r="1" gradientUnits="userSpaceOnUse" gradientTransform="translate(12.1186 8.325) rotate(-26.2415) scale(28.2423 14.945)">
<stop stop-color="#AAFCFF"/>
<stop offset="1" stop-color="white" stop-opacity="0"/>
</radialGradient>
</defs>
</svg>
