<svg width="126" height="28" viewBox="0 0 126 28" fill="none" xmlns="http://www.w3.org/2000/svg">
<path d="M34.5135 18.8462H37.3593C37.9749 18.8462 38.459 18.9861 38.8116 19.266C39.1641 19.5402 39.3404 19.9207 39.3404 20.4076C39.3404 20.693 39.2733 20.9449 39.1389 21.1631C39.0102 21.3814 38.8283 21.5493 38.5933 21.6668C38.8675 21.7787 39.0914 21.9662 39.2649 22.2292C39.4384 22.4867 39.5251 22.7721 39.5251 23.0855C39.5251 23.6003 39.3348 24.0033 38.9543 24.2943C38.5737 24.5797 38.0421 24.7224 37.3593 24.7224H34.5135V18.8462ZM37.46 23.7067C37.7455 23.7067 37.9693 23.6395 38.1316 23.5052C38.2939 23.3653 38.375 23.175 38.375 22.9344C38.375 22.6937 38.2939 22.509 38.1316 22.3803C37.9749 22.246 37.7538 22.1789 37.4684 22.1789H35.6552V23.7067H37.46ZM37.3845 21.2135C37.6419 21.2135 37.8406 21.1547 37.9805 21.0372C38.126 20.9141 38.1988 20.7462 38.1988 20.5335C38.1988 20.3153 38.126 20.1474 37.9805 20.0299C37.8406 19.9067 37.6419 19.8452 37.3845 19.8452H35.6552V21.2135H37.3845ZM40.9915 18.8462H42.1499V23.6563H45.1887V24.7224H40.9915V18.8462ZM49.0667 24.8567C48.4511 24.8567 47.9082 24.7308 47.4381 24.479C46.9736 24.2215 46.6127 23.8606 46.3552 23.3961C46.0978 22.9316 45.9691 22.3943 45.9691 21.7843C45.9691 21.1743 46.0978 20.6371 46.3552 20.1726C46.6127 19.7081 46.9736 19.3499 47.4381 19.0981C47.9082 18.8406 48.4511 18.7119 49.0667 18.7119C49.6767 18.7119 50.2139 18.8406 50.6784 19.0981C51.1485 19.3499 51.5123 19.7081 51.7697 20.1726C52.0272 20.6371 52.1559 21.1743 52.1559 21.7843C52.1559 22.3943 52.0272 22.9316 51.7697 23.3961C51.5123 23.8606 51.1485 24.2215 50.6784 24.479C50.2139 24.7308 49.6767 24.8567 49.0667 24.8567ZM47.1443 21.7843C47.1443 22.1817 47.2227 22.5342 47.3794 22.842C47.5417 23.1442 47.7683 23.3793 48.0593 23.5472C48.3503 23.7151 48.6861 23.799 49.0667 23.799C49.4416 23.799 49.7746 23.7151 50.0656 23.5472C50.3566 23.3793 50.5805 23.1442 50.7372 22.842C50.8995 22.5342 50.9806 22.1817 50.9806 21.7843C50.9806 21.387 50.8995 21.0372 50.7372 20.735C50.5805 20.4272 50.3566 20.1894 50.0656 20.0215C49.7746 19.8536 49.4416 19.7696 49.0667 19.7696C48.6861 19.7696 48.3503 19.8536 48.0593 20.0215C47.7683 20.1894 47.5417 20.4272 47.3794 20.735C47.2227 21.0372 47.1443 21.387 47.1443 21.7843ZM56.3228 24.8483C55.7128 24.8483 55.1755 24.7224 54.711 24.4706C54.2465 24.2187 53.8856 23.8606 53.6281 23.3961C53.3763 22.9316 53.2504 22.3943 53.2504 21.7843C53.2504 21.1911 53.3819 20.6622 53.6449 20.1977C53.9136 19.7333 54.2857 19.3723 54.7614 19.1149C55.2371 18.8518 55.7827 18.7203 56.3983 18.7203C57.2826 18.7203 58.0213 19.0281 58.6145 19.6437L57.8926 20.3656C57.7023 20.1754 57.4728 20.0271 57.2042 19.9207C56.9412 19.8088 56.6698 19.7528 56.3899 19.7528C55.9982 19.7528 55.6512 19.8368 55.349 20.0047C55.0524 20.1726 54.8202 20.4104 54.6523 20.7182C54.49 21.026 54.4088 21.3814 54.4088 21.7843C54.4088 22.1929 54.4872 22.551 54.6439 22.8588C54.8062 23.161 55.0328 23.3961 55.3238 23.564C55.6148 23.7319 55.9506 23.8158 56.3312 23.8158C56.902 23.8158 57.3749 23.6591 57.7499 23.3457V22.288H56.1297V21.3226H58.774V23.8662C58.1472 24.5209 57.3301 24.8483 56.3228 24.8483Z" fill="black"/>
<path d="M39.2365 14.7072C38.157 14.7072 37.2073 14.4884 36.3874 14.0508C35.5675 13.6132 34.9321 12.9979 34.4811 12.2047C34.0438 11.3979 33.8252 10.468 33.8252 9.41508C33.8252 8.3758 34.0507 7.45959 34.5016 6.66645C34.9526 5.85964 35.5811 5.23744 36.3874 4.79985C37.2073 4.34858 38.1501 4.12294 39.216 4.12294C40.6918 4.12294 41.9695 4.64259 43.049 5.68187L41.6552 7.17926C41.3546 6.87841 40.9924 6.64594 40.5688 6.48184C40.1452 6.30407 39.7079 6.21518 39.257 6.21518C38.3278 6.21518 37.5694 6.51603 36.9818 7.11772C36.4079 7.70573 36.1209 8.47152 36.1209 9.41508C36.1209 10.3723 36.4079 11.1449 36.9818 11.733C37.5694 12.321 38.3278 12.615 39.257 12.615C39.7489 12.615 40.2135 12.5261 40.6508 12.3483C41.0881 12.1705 41.4571 11.9107 41.7577 11.5689L43.172 13.1073C42.6117 13.6543 42.0105 14.0577 41.3682 14.3175C40.726 14.5773 40.0154 14.7072 39.2365 14.7072Z" fill="black"/>
<path d="M44.4976 2.75152C44.4976 1.67128 45.1748 0.706982 46.191 0.340382L46.7933 0.123072V5.53828C47.6132 4.6084 48.7064 4.14346 50.0729 4.14346C51.3984 4.14346 52.4506 4.57421 53.2295 5.43572C54.0084 6.29723 54.3978 7.44591 54.3978 8.88177V14.4816H52.1021V9.02535C52.1021 8.13649 51.8835 7.44591 51.4462 6.95362C51.0089 6.46133 50.4077 6.21518 49.6425 6.21518C48.8089 6.21518 48.1256 6.49552 47.5927 7.05618C47.0598 7.60317 46.7933 8.30059 46.7933 9.14842V14.4816H44.4976V2.75152Z" fill="black"/>
<path d="M60.8817 14.7072C59.8979 14.7072 59.0233 14.4884 58.2581 14.0508C57.5065 13.5996 56.9189 12.9705 56.4953 12.1637C56.0717 11.3569 55.8599 10.4407 55.8599 9.41508C55.8599 8.38947 56.0717 7.47326 56.4953 6.66645C56.9189 5.85964 57.5065 5.23744 58.2581 4.79985C59.0233 4.34858 59.8979 4.12294 60.8817 4.12294C61.6606 4.12294 62.3712 4.26653 63.0135 4.5537C63.6557 4.82719 64.175 5.21009 64.5713 5.70238L64.5918 4.34858H66.6415V14.4816H64.5918L64.5713 13.1278C64.175 13.6201 63.6557 14.0098 63.0135 14.297C62.3712 14.5705 61.6606 14.7072 60.8817 14.7072ZM58.1556 9.41508C58.1556 10.3586 58.4426 11.1313 59.0165 11.733C59.5904 12.321 60.3351 12.615 61.2507 12.615C62.1662 12.615 62.911 12.321 63.4849 11.733C64.0588 11.1313 64.3458 10.3586 64.3458 9.41508C64.3458 8.47152 64.0588 7.70573 63.4849 7.11772C62.911 6.51603 62.1662 6.21518 61.2507 6.21518C60.3351 6.21518 59.5904 6.51603 59.0165 7.11772C58.4426 7.70573 58.1556 8.47152 58.1556 9.41508Z" fill="black"/>
<path d="M68.9143 4.34858H71.21V14.4816H68.9143V4.34858ZM68.6069 1.43585C68.6069 1.01193 68.7435 0.670063 69.0168 0.410242C69.2901 0.136747 69.6386 0 70.0622 0C70.4994 0 70.8547 0.136747 71.128 0.410242C71.415 0.670063 71.5585 1.01193 71.5585 1.43585C71.5585 1.83242 71.415 2.16745 71.128 2.44095C70.8547 2.70077 70.4994 2.83068 70.0622 2.83068C69.6386 2.83068 69.2901 2.70077 69.0168 2.44095C68.7435 2.16745 68.6069 1.83242 68.6069 1.43585Z" fill="black"/>
<path d="M73.5062 4.34858H75.556L75.5765 5.68187C76.4373 4.65626 77.6057 4.14346 79.0815 4.14346C79.9424 4.14346 80.7008 4.34174 81.3567 4.73831C82.0126 5.1212 82.5182 5.66819 82.8735 6.37928C83.2288 7.09037 83.4064 7.92453 83.4064 8.88177V14.4816H81.1107V9.02535C81.1107 8.13649 80.8921 7.44591 80.4548 6.95362C80.0176 6.46133 79.4163 6.21518 78.6511 6.21518C77.8175 6.21518 77.1343 6.49552 76.6013 7.05618C76.0684 7.60317 75.8019 8.30059 75.8019 9.14842V14.4816H73.5062V4.34858Z" fill="black"/>
<path d="M89.3574 14.7277C87.6493 14.7277 86.1257 14.2286 84.7865 13.2303L85.8524 11.5689C86.3033 11.9244 86.8431 12.2047 87.4717 12.4099C88.1002 12.6013 88.7493 12.697 89.4189 12.697C90.0612 12.697 90.5599 12.6013 90.9152 12.4099C91.2705 12.2047 91.4481 11.9176 91.4481 11.5483C91.4481 11.1928 91.2705 10.9193 90.9152 10.7279C90.5736 10.5364 90.0133 10.3997 89.2344 10.3176C87.9089 10.1945 86.8841 9.86635 86.1598 9.33303C85.4492 8.78604 85.094 8.07495 85.094 7.19977C85.094 6.5844 85.2784 6.04425 85.6474 5.57931C86.0163 5.11436 86.5288 4.75198 87.1847 4.49216C87.8543 4.23234 88.6195 4.10243 89.4804 4.10243C91.0382 4.10243 92.3774 4.49216 93.4979 5.27162L92.4935 6.9126C91.5916 6.33826 90.6214 6.05109 89.5829 6.05109C88.8586 6.05109 88.3052 6.15365 87.9226 6.35877C87.54 6.55022 87.3487 6.83055 87.3487 7.19977C87.3487 7.52796 87.5058 7.78778 87.8201 7.97923C88.1481 8.157 88.681 8.28691 89.4189 8.36896C90.922 8.53306 92.0152 8.86809 92.6985 9.37406C93.3817 9.88002 93.7234 10.6116 93.7234 11.5689C93.7234 12.1979 93.5389 12.7517 93.1699 13.2303C92.8146 13.6953 92.3022 14.0645 91.6326 14.338C90.9767 14.5978 90.2183 14.7277 89.3574 14.7277Z" fill="black"/>
<path d="M95.2607 4.34858H97.3104L97.3309 5.70238C97.7272 5.21009 98.2464 4.82719 98.8887 4.5537C99.531 4.26653 100.242 4.12294 101.02 4.12294C102.004 4.12294 102.872 4.34858 103.624 4.79985C104.389 5.23744 104.983 5.85964 105.407 6.66645C105.83 7.47326 106.042 8.38947 106.042 9.41508C106.042 10.4407 105.83 11.3569 105.407 12.1637C104.983 12.9705 104.389 13.5996 103.624 14.0508C102.872 14.4884 102.004 14.7072 101.02 14.7072C100.324 14.7072 99.6676 14.591 99.0527 14.3585C98.4514 14.126 97.9527 13.7978 97.5564 13.3739V19.1584H95.2607V4.34858ZM97.5564 9.41508C97.5564 10.3586 97.8433 11.1313 98.4173 11.733C99.0049 12.321 99.7496 12.615 100.651 12.615C101.567 12.615 102.312 12.321 102.886 11.733C103.46 11.1313 103.747 10.3586 103.747 9.41508C103.747 8.47152 103.46 7.70573 102.886 7.11772C102.312 6.51603 101.567 6.21518 100.651 6.21518C99.7496 6.21518 99.0049 6.51603 98.4173 7.11772C97.8433 7.70573 97.5564 8.47152 97.5564 9.41508Z" fill="black"/>
<path d="M112.415 14.7072C111.335 14.7072 110.385 14.4816 109.565 14.0303C108.746 13.5654 108.11 12.9363 107.659 12.1432C107.222 11.3364 107.003 10.427 107.003 9.41508C107.003 8.40315 107.222 7.50061 107.659 6.70748C108.11 5.90066 108.746 5.27163 109.565 4.82036C110.385 4.35542 111.335 4.12294 112.415 4.12294C113.48 4.12294 114.423 4.35542 115.243 4.82036C116.063 5.27163 116.692 5.90066 117.129 6.70748C117.58 7.50061 117.805 8.40315 117.805 9.41508C117.805 10.427 117.58 11.3364 117.129 12.1432C116.692 12.9363 116.063 13.5654 115.243 14.0303C114.423 14.4816 113.48 14.7072 112.415 14.7072ZM109.299 9.41508C109.299 10.0031 109.429 10.5432 109.688 11.0355C109.948 11.5142 110.31 11.8971 110.775 12.1842C111.253 12.4714 111.8 12.615 112.415 12.615C113.029 12.615 113.569 12.4714 114.034 12.1842C114.512 11.8971 114.874 11.5142 115.12 11.0355C115.38 10.5432 115.51 10.0031 115.51 9.41508C115.51 8.82707 115.38 8.29375 115.12 7.81513C114.874 7.32284 114.512 6.93311 114.034 6.64594C113.569 6.35877 113.029 6.21518 112.415 6.21518C111.8 6.21518 111.253 6.35877 110.775 6.64594C110.31 6.93311 109.948 7.32284 109.688 7.81513C109.429 8.29375 109.299 8.82707 109.299 9.41508Z" fill="black"/>
<path d="M123.724 14.6252C122.659 14.6252 121.839 14.3175 121.265 13.7021C120.691 13.0868 120.404 12.1842 120.404 10.9945V6.29723H118.498V4.34858H120.404V3.20353C120.404 2.4867 120.899 1.86492 121.598 1.70456L122.679 1.45636V4.34858H125.59V6.29723H122.679V10.9945C122.679 11.5142 122.795 11.9107 123.028 12.1842C123.274 12.4577 123.629 12.5945 124.093 12.5945C124.503 12.5945 124.927 12.4919 125.364 12.2868L126 14.1329C125.603 14.3106 125.228 14.4337 124.872 14.5021C124.531 14.5841 124.148 14.6252 123.724 14.6252Z" fill="black"/>
<path fill-rule="evenodd" clip-rule="evenodd" d="M27.3368 14.9893C27.3551 14.71 27.3645 14.4283 27.3645 14.1446C27.3645 13.8 27.3507 13.4585 27.3237 13.1205H13.9776C13.4615 13.1205 13.0432 13.5389 13.0432 14.055C13.0432 14.571 13.4615 14.9894 13.9776 14.9894H16.3977V14.9893H27.3368ZM25.9192 20.0386C25.5813 20.6867 25.1893 21.3041 24.7491 21.8856H15.1111C11.7437 21.8856 9.01387 19.1558 9.01387 15.7883C9.01387 12.4209 11.7437 9.69108 15.1111 9.69108H26.5614C26.7836 10.2855 26.9625 10.8997 27.0946 11.5303H13.9776C12.5833 11.5303 11.4529 12.6606 11.4529 14.055C11.4529 15.4493 12.5833 16.5796 13.9776 16.5796H23.6812V16.5795H27.1308C27.0063 17.22 26.8335 17.8442 26.6163 18.4484H12.4574V20.0386H25.9192ZM23.3316 23.4758C20.8576 25.8433 17.4476 27.3064 13.6822 27.3064C6.12575 27.3064 0 21.4137 0 14.1446C0 6.87545 6.12575 0.982666 13.6822 0.982666C18.9738 0.982666 23.5638 3.87237 25.8399 8.10084H15.1111C10.8654 8.10084 7.42363 11.5427 7.42363 15.7883C7.42363 20.034 10.8654 23.4758 15.1111 23.4758H23.3316Z" fill="#262B40"/>
</svg>
