<svg width="463" height="93" viewBox="0 0 463 93" fill="none" xmlns="http://www.w3.org/2000/svg">
<path d="M145.187 58.7425H120.862C118.01 58.7425 115.585 57.8061 113.589 55.9332C111.592 54.0196 110.594 51.6377 110.594 48.7877V37.2449C110.594 34.3948 111.592 32.0334 113.589 30.1605C115.585 28.2468 118.01 27.29 120.862 27.29H145.187V34.6188H120.862C118.906 34.6188 117.928 35.4942 117.928 37.2449V48.7877C117.928 50.5384 118.906 51.4138 120.862 51.4138H145.187V58.7425Z" fill="#262B40"/>
<path d="M190.061 58.7425H182.605V46.6501H158.646V58.7425H151.312V27.29H158.646V39.3214H182.605V27.29H190.061V58.7425Z" fill="#262B40"/>
<path d="M234.714 58.7425H227.38V48.7266H208.067V41.3979H227.38V37.0006C227.38 35.4127 226.85 34.6188 225.791 34.6188H205.011C203.992 34.6188 203.483 35.4127 203.483 37.0006V58.7425H196.148V37.0006C196.148 34.3541 196.963 32.0741 198.593 30.1605C200.264 28.2468 202.403 27.29 205.011 27.29H225.791C228.44 27.29 230.579 28.2468 232.209 30.1605C233.879 32.0741 234.714 34.3541 234.714 37.0006V58.7425Z" fill="#262B40"/>
<path d="M248.14 58.7425H240.806V27.29H248.14V58.7425Z" fill="#262B40"/>
<path d="M287.801 58.7425H280.467L261.581 37.5503V58.7425H254.247V27.29H261.581L280.467 48.2991V27.29H287.801V58.7425Z" fill="#262B40"/>
<path d="M331.418 49.032C331.418 51.6784 330.623 53.9381 329.034 55.811C327.323 57.7654 325.163 58.7425 322.556 58.7425H295.419V51.4138H322.556C323.574 51.4138 324.084 50.6199 324.084 49.032C324.084 47.4441 323.574 46.6501 322.556 46.6501H302.814C300.207 46.6501 298.047 45.673 296.336 43.7186C294.706 41.8864 293.891 39.6471 293.891 37.0006C293.891 34.3541 294.726 32.0741 296.397 30.1605C298.067 28.2468 300.207 27.29 302.814 27.29H329.951V34.6188H302.814C301.796 34.6188 301.286 35.4127 301.286 37.0006C301.286 38.5478 301.796 39.3214 302.814 39.3214H322.556C325.163 39.3214 327.323 40.2985 329.034 42.2529C330.623 44.1258 331.418 46.3855 331.418 49.032Z" fill="#262B40"/>
<path d="M376.894 37.9167C376.894 40.7261 376.12 43.1283 374.572 45.1233C372.901 47.3626 370.701 48.4823 367.971 48.4823H344.868V58.7425H337.534V27.29H367.971C370.701 27.29 372.901 28.4097 374.572 30.649C376.12 32.6848 376.894 35.1074 376.894 37.9167ZM369.56 37.9167C369.56 35.7181 369.03 34.6188 367.971 34.6188H344.868V41.1536H367.971C369.03 41.1536 369.56 40.0746 369.56 37.9167Z" fill="#262B40"/>
<path d="M422.021 48.7877C422.021 51.6377 421.022 54.0196 419.026 55.9332C417.029 57.8061 414.605 58.7425 411.753 58.7425H393.295C390.442 58.7425 388.018 57.8061 386.022 55.9332C384.025 54.0196 383.027 51.6377 383.027 48.7877V37.2449C383.027 34.3948 384.025 32.0334 386.022 30.1605C388.018 28.2468 390.442 27.29 393.295 27.29H411.753C414.605 27.29 417.029 28.2468 419.026 30.1605C421.022 32.0334 422.021 34.3948 422.021 37.2449V48.7877ZM414.686 48.7877V37.2449C414.686 35.4942 413.708 34.6188 411.753 34.6188H393.295C391.339 34.6188 390.361 35.4942 390.361 37.2449V48.7877C390.361 50.5384 391.339 51.4138 393.295 51.4138H411.753C413.708 51.4138 414.686 50.5384 414.686 48.7877Z" fill="#262B40"/>
<path d="M462.999 34.6188H448.82V58.7425H441.486V34.6188H427.306V27.29H462.999V34.6188Z" fill="#262B40"/>
<path d="M202.631 41.3969H209.787V48.7232H202.631V41.3969Z" fill="#262B40"/>
<g filter="url(#filter0_i_2903_50018)">
<ellipse cx="46.0791" cy="46.0444" rx="46.0791" ry="46.0444" fill="url(#paint0_diamond_2903_50018)"/>
<ellipse cx="46.0791" cy="46.0444" rx="46.0791" ry="46.0444" fill="url(#paint1_diamond_2903_50018)"/>
</g>
<mask id="mask0_2903_50018" style="mask-type:alpha" maskUnits="userSpaceOnUse" x="0" y="0" width="93" height="93">
<ellipse cx="46.0791" cy="46.0444" rx="46.0791" ry="46.0444" fill="url(#paint2_diamond_2903_50018)"/>
<ellipse cx="46.0791" cy="46.0444" rx="46.0791" ry="46.0444" fill="url(#paint3_diamond_2903_50018)"/>
</mask>
<g mask="url(#mask0_2903_50018)">
<path fill-rule="evenodd" clip-rule="evenodd" d="M25.082 42.8192C25.082 33.0283 33.0196 25.0913 42.8112 25.0913H92.5398V30.2713H42.8112C35.8807 30.2713 30.2624 35.8892 30.2624 42.8192V60.7667C30.2624 67.6967 35.8807 73.3146 42.8112 73.3146H84.1101V78.4946H42.8112C33.0197 78.4946 25.082 70.5576 25.082 60.7667V42.8192Z" fill="white"/>
<path fill-rule="evenodd" clip-rule="evenodd" d="M38.6484 43.4653C38.6484 39.9448 41.5026 37.0908 45.0234 37.0908H94.5903V42.2708H45.0234C44.3636 42.2708 43.8288 42.8056 43.8288 43.4653V47.9974C43.8288 48.6571 44.3636 49.1918 45.0234 49.1918H79.7432V54.3718H45.0234C41.5026 54.3718 38.6484 51.5179 38.6484 47.9974V43.4653Z" fill="white"/>
<path fill-rule="evenodd" clip-rule="evenodd" d="M102.25 57.8295C102.25 53.0574 98.3812 49.189 93.6089 49.189H55.228V54.369H93.6089C95.5202 54.369 97.0696 55.9183 97.0696 57.8295C97.0696 59.7407 95.5202 61.29 93.6089 61.29H41.9576V66.47H93.6089C98.3812 66.47 102.25 62.6015 102.25 57.8295Z" fill="white"/>
</g>
<defs>
<filter id="filter0_i_2903_50018" x="0" y="0" width="92.1602" height="92.0889" filterUnits="userSpaceOnUse" color-interpolation-filters="sRGB">
<feFlood flood-opacity="0" result="BackgroundImageFix"/>
<feBlend mode="normal" in="SourceGraphic" in2="BackgroundImageFix" result="shape"/>
<feColorMatrix in="SourceAlpha" type="matrix" values="0 0 0 0 0 0 0 0 0 0 0 0 0 0 0 0 0 0 127 0" result="hardAlpha"/>
<feOffset/>
<feGaussianBlur stdDeviation="4.11938"/>
<feComposite in2="hardAlpha" operator="arithmetic" k2="-1" k3="1"/>
<feColorMatrix type="matrix" values="0 0 0 0 0.160349 0 0 0 0 0.114062 0 0 0 0 0.9125 0 0 0 1 0"/>
<feBlend mode="normal" in2="shape" result="effect1_innerShadow_2903_50018"/>
</filter>
<radialGradient id="paint0_diamond_2903_50018" cx="0" cy="0" r="1" gradientUnits="userSpaceOnUse" gradientTransform="translate(-17.2797 82.3952) rotate(-22.3351) scale(158.626 158.541)">
<stop offset="0.421875" stop-color="#402AFD"/>
<stop offset="1" stop-color="#0EFFD4"/>
</radialGradient>
<radialGradient id="paint1_diamond_2903_50018" cx="0" cy="0" r="1" gradientUnits="userSpaceOnUse" gradientTransform="translate(28.5115 21.2955) rotate(-26.2415) scale(72.2444 38.2295)">
<stop stop-color="#AAFCFF"/>
<stop offset="1" stop-color="white" stop-opacity="0"/>
</radialGradient>
<radialGradient id="paint2_diamond_2903_50018" cx="0" cy="0" r="1" gradientUnits="userSpaceOnUse" gradientTransform="translate(-17.2797 82.3952) rotate(-22.3351) scale(158.626 158.541)">
<stop offset="0.421875" stop-color="#402AFD"/>
<stop offset="1" stop-color="#0EFFD4"/>
</radialGradient>
<radialGradient id="paint3_diamond_2903_50018" cx="0" cy="0" r="1" gradientUnits="userSpaceOnUse" gradientTransform="translate(28.5115 21.2955) rotate(-26.2415) scale(72.2444 38.2295)">
<stop stop-color="#AAFCFF"/>
<stop offset="1" stop-color="white" stop-opacity="0"/>
</radialGradient>
</defs>
</svg>
