<svg width="34" height="34" viewBox="0 0 34 34" fill="none" xmlns="http://www.w3.org/2000/svg">
<path d="M16.9987 32.2318C8.59787 32.2318 1.76953 25.4034 1.76953 17.0026C1.76953 8.60177 8.59787 1.77344 16.9987 1.77344C25.3995 1.77344 32.2279 8.60177 32.2279 17.0026C32.2279 25.4034 25.3995 32.2318 16.9987 32.2318ZM16.9987 3.89844C9.7737 3.89844 3.89453 9.7776 3.89453 17.0026C3.89453 24.2276 9.7737 30.1068 16.9987 30.1068C24.2237 30.1068 30.1029 24.2276 30.1029 17.0026C30.1029 9.7776 24.2237 3.89844 16.9987 3.89844Z" fill="#3CD65E"/>
<path opacity="0.35" d="M14.99 22.0719C14.7067 22.0719 14.4375 21.9586 14.2392 21.7603L10.23 17.7511C9.81917 17.3403 9.81917 16.6603 10.23 16.2494C10.6408 15.8386 11.3208 15.8386 11.7317 16.2494L14.99 19.5078L22.2717 12.2261C22.6825 11.8153 23.3625 11.8153 23.7733 12.2261C24.1842 12.6369 24.1842 13.3169 23.7733 13.7278L15.7408 21.7603C15.5425 21.9586 15.2733 22.0719 14.99 22.0719Z" fill="#3CD65E"/>
</svg>
