<svg width="9" height="9" viewBox="0 0 9 9" fill="none" xmlns="http://www.w3.org/2000/svg">
<path d="M1.7 5.8665H1.3C1.08783 5.8665 0.884342 5.78224 0.734316 5.63219C0.584284 5.48215 0.5 5.27868 0.5 5.0665V1.4665C0.5 1.25433 0.584284 1.05085 0.734316 0.900819C0.884342 0.750788 1.08783 0.666504 1.3 0.666504H4.9C5.11218 0.666504 5.31564 0.750788 5.46569 0.900819C5.61573 1.05085 5.7 1.25433 5.7 1.4665V1.8665M4.1 3.4665H7.7C8.14182 3.4665 8.5 3.82468 8.5 4.2665V7.8665C8.5 8.30833 8.14182 8.6665 7.7 8.6665H4.1C3.65818 8.6665 3.3 8.30833 3.3 7.8665V4.2665C3.3 3.82468 3.65818 3.4665 4.1 3.4665Z" stroke="#EAEEFB" stroke-width="0.666667" stroke-linecap="round" stroke-linejoin="round"/>
</svg>
