<svg width="10" height="10" viewBox="0 0 10 10" fill="none" xmlns="http://www.w3.org/2000/svg">
<g clip-path="url(#clip0_1_369)">
<path d="M8.03363 0.0914958C7.97503 0.0329111 7.89555 0 7.81269 0C7.72983 0 7.65036 0.0329111 7.59175 0.0914958L6.56238 1.12087L8.87925 3.43775L9.90863 2.409C9.93773 2.37997 9.96082 2.34548 9.97657 2.30752C9.99233 2.26955 10.0004 2.22885 10.0004 2.18775C10.0004 2.14664 9.99233 2.10594 9.97657 2.06797C9.96082 2.03001 9.93773 1.99552 9.90863 1.9665L8.03363 0.0914958ZM8.43738 3.87962L6.1205 1.56275L2.058 5.62525H2.18738C2.27026 5.62525 2.34974 5.65817 2.40835 5.71677C2.46695 5.77538 2.49988 5.85487 2.49988 5.93775V6.25025H2.81238C2.89526 6.25025 2.97474 6.28317 3.03335 6.34177C3.09195 6.40038 3.12488 6.47987 3.12488 6.56275V6.87525H3.43738C3.52026 6.87525 3.59974 6.90817 3.65835 6.96677C3.71695 7.02538 3.74988 7.10487 3.74988 7.18775V7.50025H4.06238C4.14526 7.50025 4.22474 7.53317 4.28335 7.59177C4.34195 7.65038 4.37488 7.72987 4.37488 7.81275V7.94212L8.43738 3.87962ZM3.76988 8.54712C3.75673 8.51215 3.74995 8.47511 3.74988 8.43775V8.12525H3.43738C3.3545 8.12525 3.27501 8.09232 3.21641 8.03372C3.1578 7.97511 3.12488 7.89563 3.12488 7.81275V7.50025H2.81238C2.7295 7.50025 2.65001 7.46732 2.59141 7.40872C2.5328 7.35011 2.49988 7.27063 2.49988 7.18775V6.87525H2.18738C2.1045 6.87525 2.02501 6.84232 1.96641 6.78372C1.9078 6.72511 1.87488 6.64563 1.87488 6.56275V6.25025H1.56238C1.52502 6.25018 1.48797 6.24341 1.453 6.23025L1.34113 6.3415C1.31135 6.37149 1.28796 6.40721 1.27238 6.4465L0.0223788 9.5715C-0.000352871 9.62829 -0.00591756 9.6905 0.0063746 9.75042C0.0186668 9.81034 0.0482752 9.86534 0.0915292 9.9086C0.134783 9.95185 0.189781 9.98146 0.249703 9.99375C0.309626 10.006 0.371839 10.0005 0.428629 9.97775L3.55363 8.72775C3.59292 8.71217 3.62864 8.68878 3.65863 8.659L3.76988 8.54712Z" fill="white"/>
</g>
<defs>
<clipPath id="clip0_1_369">
<rect width="10" height="10" fill="white"/>
</clipPath>
</defs>
</svg>
