<svg width="20" height="20" viewBox="0 0 20 20" fill="none" xmlns="http://www.w3.org/2000/svg">
<path d="M9.9987 0.833008C4.94786 0.833008 0.832031 4.94884 0.832031 9.99967C0.832031 15.0505 4.94786 19.1663 9.9987 19.1663C15.0495 19.1663 19.1654 15.0505 19.1654 9.99967C19.1654 4.94884 15.0495 0.833008 9.9987 0.833008ZM13.0787 12.108C13.3445 12.3738 13.3445 12.8138 13.0787 13.0797C12.9412 13.2172 12.767 13.2813 12.5929 13.2813C12.4187 13.2813 12.2445 13.2172 12.107 13.0797L9.9987 10.9713L7.89036 13.0797C7.75286 13.2172 7.5787 13.2813 7.40453 13.2813C7.23036 13.2813 7.0562 13.2172 6.9187 13.0797C6.65286 12.8138 6.65286 12.3738 6.9187 12.108L9.02703 9.99967L6.9187 7.89134C6.65286 7.62551 6.65286 7.18551 6.9187 6.91967C7.18453 6.65384 7.62453 6.65384 7.89036 6.91967L9.9987 9.02801L12.107 6.91967C12.3729 6.65384 12.8129 6.65384 13.0787 6.91967C13.3445 7.18551 13.3445 7.62551 13.0787 7.89134L10.9704 9.99967L13.0787 12.108Z" fill="#2C2D54"/>
</svg>
