<svg width="15" height="22" viewBox="0 0 15 22" fill="none" xmlns="http://www.w3.org/2000/svg">
<path d="M6.67656 0.793204C7.13859 0.524987 7.84161 0.524987 8.30364 0.793204L13.0182 3.53012C13.2965 3.69165 13.4493 3.93236 13.4767 4.18085H13.4812V17.938C13.4751 18.209 13.3208 18.4783 13.0182 18.654L8.30364 21.3909C7.84161 21.6591 7.13859 21.6591 6.67656 21.3909L1.96197 18.654C1.66066 18.4791 1.51607 18.2079 1.50891 17.938C1.5082 17.9114 1.50811 17.8893 1.50879 17.8709L1.50876 4.26922C1.50829 4.25432 1.50824 4.23944 1.50863 4.22462L1.50891 4.18085L1.51102 4.18084C1.53196 3.92962 1.67785 3.69506 1.96197 3.53012L6.67656 0.793204ZM12.739 11.8559L8.30364 14.4307C7.84161 14.6989 7.13859 14.6989 6.67656 14.4307L2.25089 11.8616V17.9108L6.67656 20.4664C6.92647 20.6132 7.18585 20.7563 7.43947 20.7745L7.49011 20.7763C7.75439 20.7773 8.01097 20.6298 8.27115 20.4902L12.739 17.8888V11.8559ZM0.742084 17.6389C0.742084 18.1659 0.79782 18.5124 0.908483 18.7565C1.00021 18.9588 1.13783 19.1133 1.38912 19.3015L1.40347 19.3122C1.45861 19.353 1.51937 19.3959 1.59331 19.4461L1.68052 19.5048L1.94831 19.6825L1.56423 20.3804L1.26451 20.1814L1.21413 20.1474C1.12746 20.0885 1.05564 20.0382 0.988638 19.9885C0.27245 19.4577 0.00535014 18.8792 7.97578e-05 17.6755L0 17.6389H0.742084ZM7.11896 8.16856C7.08463 8.18152 7.05247 8.1965 7.02313 8.21353L2.30854 10.9505C2.3036 10.9533 2.29888 10.9562 2.29439 10.959L2.2904 10.9615L2.29779 10.9662L2.30854 10.9726L7.02313 13.7095C7.05247 13.7265 7.08463 13.7415 7.11896 13.7545V8.16856ZM7.86126 8.16856V13.7545C7.89558 13.7415 7.92775 13.7265 7.95707 13.7095L12.6717 10.9726C12.6766 10.9697 12.6813 10.9669 12.6858 10.9641L12.6898 10.9615L12.6824 10.9569L12.6717 10.9505L7.95707 8.21353C7.92775 8.1965 7.89558 8.18152 7.86126 8.16856ZM12.739 5.15674L8.50975 7.61193L12.739 10.0671V5.15674ZM2.25089 5.16249V10.0614L6.47035 7.61193L2.25089 5.16249ZM7.95707 1.51442C7.7119 1.3721 7.26832 1.3721 7.02313 1.51442L2.30854 4.25135C2.3036 4.25422 2.29888 4.25706 2.29439 4.25986L2.2904 4.26241L2.29779 4.26707L2.30854 4.27348L7.02313 7.0104C7.26832 7.15272 7.7119 7.15272 7.95707 7.0104L12.6717 4.27348C12.6766 4.27061 12.6813 4.26777 12.6858 4.26495L12.6898 4.26241L12.6824 4.25775L12.6717 4.25135L7.95707 1.51442ZM13.4358 1.81456L13.7355 2.01351L13.7859 2.04751C13.8725 2.10631 13.9444 2.15682 14.0114 2.20646C14.7275 2.73715 14.9947 3.31575 14.9999 4.51938L15 4.55605H14.2579C14.2579 4.02895 14.2022 3.68251 14.0915 3.43844C13.9998 3.23615 13.8622 3.08155 13.6109 2.89344L13.5965 2.88276C13.5414 2.84189 13.4806 2.79909 13.4067 2.74877L13.3195 2.69007L13.0517 2.51245L13.4358 1.81456Z" fill="#071CFE"/>
</svg>
