<svg width="19" height="19" viewBox="0 0 19 19" fill="none" xmlns="http://www.w3.org/2000/svg">
<g clip-path="url(#clip0_9_411)">
<path d="M5.58455 10.8184C6.13058 10.8184 6.66329 10.6364 7.0939 10.3034L3.63128 6.84082C2.7967 7.91956 2.99647 9.4733 4.07521 10.3079C4.51025 10.6364 5.03852 10.8184 5.58455 10.8184Z" fill="#3E6957"/>
<path d="M15.8836 8.34577C15.8836 7.79974 15.7016 7.26703 15.3687 6.83643L11.9061 10.299C12.9848 11.1336 14.5341 10.9339 15.3687 9.85512C15.7016 9.42451 15.8836 8.8918 15.8836 8.34577Z" fill="#3E6957"/>
<path d="M17.6283 4.5769L16.0967 6.10845C17.3308 7.58672 17.1355 9.78859 15.6572 11.0227C14.361 12.1059 12.4787 12.1059 11.1825 11.0227L9.5 12.7052L7.82196 11.0271C6.34369 12.2612 4.14182 12.0659 2.90771 10.5877C1.82453 9.29139 1.82453 7.40915 2.90771 6.11289L2.12196 5.32714L1.37617 4.5769C0.475 6.05961 0 7.76429 0 9.50004C0 14.7472 4.2528 19 9.5 19C14.7472 19 19 14.7472 19 9.50004C19.0044 7.76429 18.525 6.05961 17.6283 4.5769Z" fill="#3E6957"/>
<path d="M16.372 2.94332C12.754 -0.852238 6.74323 -0.994295 2.94767 2.6237C2.83669 2.73024 2.73015 2.83678 2.62805 2.94332C2.39277 3.19192 2.1708 3.4494 1.96216 3.72019L9.50001 11.2625L17.0379 3.72019C16.8337 3.4494 16.6073 3.19192 16.372 2.94332ZM9.50001 1.24309C11.7196 1.24309 13.7883 2.09986 15.3421 3.66248L9.50001 9.50454L3.65795 3.66248C5.21169 2.09986 7.28038 1.24309 9.50001 1.24309Z" fill="#3E6957"/>
</g>
<defs>
<clipPath id="clip0_9_411">
<rect width="19" height="19" fill="white"/>
</clipPath>
</defs>
</svg>
