<svg width="62" height="62" viewBox="0 0 62 62" fill="none" xmlns="http://www.w3.org/2000/svg">
<circle cx="31" cy="31" r="31" fill="url(#paint0_linear_23_1113)"/>
<path d="M46.0078 17.9688H42.2344V16.3281C42.2344 16.1477 42.0867 16 41.9062 16H20.9062C20.7258 16 20.5781 16.1477 20.5781 16.3281V17.9688H16.8047C16.3261 17.9688 15.867 18.1589 15.5286 18.4973C15.1901 18.8358 15 19.2948 15 19.7734V25.8438C15 29.1947 17.4609 31.9797 20.6684 32.4883C21.3 37.2543 25.1309 41.0113 29.9297 41.5322V45.8471H21.8906C21.1646 45.8471 20.5781 46.4336 20.5781 47.1596V48.4844C20.5781 48.6648 20.7258 48.8125 20.9062 48.8125H41.9062C42.0867 48.8125 42.2344 48.6648 42.2344 48.4844V47.1596C42.2344 46.4336 41.6479 45.8471 40.9219 45.8471H32.8828V41.5322C37.6816 41.0113 41.5125 37.2543 42.1441 32.4883C45.3516 31.9797 47.8125 29.1947 47.8125 25.8438V19.7734C47.8125 19.2948 47.6224 18.8358 47.2839 18.4973C46.9455 18.1589 46.4864 17.9688 46.0078 17.9688ZM20.5781 29.4367C19.0564 28.9486 17.9531 27.5213 17.9531 25.8438V20.9219H20.5781V29.4367ZM44.8594 25.8438C44.8594 27.5254 43.7561 28.9527 42.2344 29.4367V20.9219H44.8594V25.8438Z" fill="white"/>
<defs>
<linearGradient id="paint0_linear_23_1113" x1="7.35593" y1="15.2373" x2="52.5424" y2="48.8644" gradientUnits="userSpaceOnUse">
<stop stop-color="#FFCF87"/>
<stop offset="0.738318" stop-color="#FFF1D5"/>
<stop offset="1" stop-color="#FFE298"/>
</linearGradient>
</defs>
</svg>
