<svg width="24" height="24" viewBox="0 0 24 24" fill="none" xmlns="http://www.w3.org/2000/svg">
<g clip-path="url(#clip0_24_6979)">
<g clip-path="url(#clip1_24_6979)">
<path d="M18.8227 1.5658e-06C17.4519 -0.00106551 16.1367 0.543305 15.1657 1.51362C14.1948 2.48393 13.6475 3.80089 13.644 5.17542V10.9137C13.1107 10.9498 12.5653 10.9725 12 10.9725C11.4347 10.9725 10.892 10.9953 10.356 11.0274V5.17542C10.3342 3.81281 9.77907 2.51341 8.81037 1.55754C7.84168 0.601663 6.53708 0.0659408 5.178 0.0659408C3.81892 0.0659408 2.51432 0.601663 1.54563 1.55754C0.576935 2.51341 0.0218067 3.81281 0 5.17542V18.8901C0.0218067 20.2527 0.576935 21.5521 1.54563 22.508C2.51432 23.4639 3.81892 23.9996 5.178 23.9996C6.53708 23.9996 7.84168 23.4639 8.81037 22.508C9.77907 21.5521 10.3342 20.2527 10.356 18.8901V13.1518C10.8893 13.1157 11.4347 13.093 12 13.093C12.5653 13.093 13.108 13.0702 13.644 13.0382V18.8901C13.6658 20.2527 14.2209 21.5521 15.1896 22.508C16.1583 23.4639 17.4629 23.9996 18.822 23.9996C20.1811 23.9996 21.4857 23.4639 22.4544 22.508C23.4231 21.5521 23.9782 20.2527 24 18.8901V5.17542C23.9965 3.80112 23.4494 2.48436 22.4787 1.51409C21.5081 0.543815 20.1932 -0.000711217 18.8227 1.5658e-06ZM5.17733 2.12044C5.98633 2.12008 6.76243 2.44153 7.33535 3.01426C7.90827 3.58699 8.23122 4.36422 8.23333 5.17542V11.252C6.71838 11.4721 5.23897 11.8915 3.83333 12.4994C3.22431 12.7674 2.651 13.1105 2.12667 13.5208V5.17542C2.12878 4.36515 2.451 3.58873 3.02277 3.01615C3.59453 2.44357 4.36926 2.1215 5.17733 2.12044ZM8.23333 18.8901C8.23333 19.7028 7.91136 20.4822 7.33825 21.0569C6.76514 21.6316 5.98784 21.9544 5.17733 21.9544C4.36683 21.9544 3.58953 21.6316 3.01642 21.0569C2.4433 20.4822 2.12133 19.7028 2.12133 18.8901V17.5143C2.12133 16.299 3.08133 15.1479 4.69067 14.4313C5.82463 13.9407 7.01445 13.5918 8.23333 13.3925V18.8901ZM18.8227 21.9451C18.0137 21.9454 17.2376 21.624 16.6647 21.0513C16.0917 20.4785 15.7688 19.7013 15.7667 18.8901V12.8135C17.2816 12.5934 18.761 12.174 20.1667 11.5662C20.7757 11.2981 21.349 10.955 21.8733 10.5447V18.8901C21.8712 19.7004 21.549 20.4768 20.9772 21.0494C20.4055 21.6219 19.6307 21.944 18.8227 21.9451ZM19.3093 9.62621C18.1754 10.1168 16.9856 10.4657 15.7667 10.665V5.17542C15.7667 4.36271 16.0886 3.58328 16.6618 3.00861C17.2349 2.43393 18.0122 2.11108 18.8227 2.11108C19.6332 2.11108 20.4105 2.43393 20.9836 3.00861C21.5567 3.58328 21.8787 4.36271 21.8787 5.17542V6.55117C21.8787 7.76113 20.9187 8.91226 19.3093 9.62621Z" fill="url(#paint0_linear_24_6979)"/>
</g>
</g>
<defs>
<linearGradient id="paint0_linear_24_6979" x1="1.52" y1="22.2115" x2="22.4" y2="1.33153" gradientUnits="userSpaceOnUse">
<stop stop-color="#00AEE9"/>
<stop offset="1" stop-color="#69FABD"/>
</linearGradient>
<clipPath id="clip0_24_6979">
<rect width="24" height="24" fill="white"/>
</clipPath>
<clipPath id="clip1_24_6979">
<rect width="24" height="24" fill="white"/>
</clipPath>
</defs>
</svg>
