<svg width="16" height="17" viewBox="0 0 16 17" fill="none" xmlns="http://www.w3.org/2000/svg">
<path d="M4.18479 3.71731C4.19525 3.71112 4.20638 3.70611 4.21798 3.70238C4.34184 3.64573 4.46582 3.59217 4.58968 3.54452V1.13498C4.59 0.9245 4.50551 0.722503 4.35476 0.573391C4.20402 0.424279 3.99937 0.340254 3.78579 0.339783H0.452393V7.25554C1.26645 5.70269 2.5787 4.4587 4.18479 3.71731Z" fill="#2AC8CE"/>
<path d="M7.59081 7.93084H8.33421C8.59062 7.93095 8.84454 7.88126 9.08146 7.78461C9.31837 7.68796 9.53364 7.54624 9.71495 7.36756C9.89626 7.18888 10.0401 6.97673 10.1381 6.74325C10.2362 6.50977 10.2866 6.25953 10.2865 6.00684V3.94583C9.88451 3.87733 8.04705 3.83917 7.621 3.83917C5.80445 3.83807 4.05514 4.51629 2.72628 5.73688C1.39743 6.95748 0.588032 8.62953 0.461518 10.4154C0.449492 10.5792 0.443359 10.743 0.443359 10.9098C0.443359 11.0767 0.449372 11.2405 0.461518 11.4042V15.7998C0.46147 15.9038 0.482231 16.0069 0.522614 16.103C0.562996 16.1991 0.622207 16.2865 0.696865 16.3601C0.771522 16.4337 0.860162 16.492 0.957716 16.5318C1.05527 16.5716 1.15982 16.5921 1.26541 16.592H4.59881V10.871C4.60046 10.0903 4.91652 9.34213 5.47753 8.79094C6.03854 8.23974 6.79863 7.93056 7.59081 7.93132V7.93084Z" fill="#2AC8CE"/>
<path d="M11.8002 13.2136C11.7897 13.2198 11.7786 13.2248 11.767 13.2286C11.6431 13.2851 11.5191 13.3388 11.3953 13.3864V15.796C11.3949 16.0065 11.4794 16.2084 11.6302 16.3576C11.7809 16.5067 11.9856 16.5907 12.1992 16.5912H15.5301V9.67529C14.7163 11.2275 13.4051 12.4713 11.8002 13.2136Z" fill="#2AC8CE"/>
<path d="M15.5361 5.52814V1.13202C15.5361 1.02797 15.5153 0.924929 15.475 0.828789C15.4346 0.73265 15.3754 0.645295 15.3007 0.571719C15.2261 0.498144 15.1374 0.439791 15.0399 0.399993C14.9423 0.360196 14.8377 0.339736 14.7322 0.339783H11.3988V6.06144C11.3971 6.84158 11.0815 7.58921 10.5211 8.14023C9.96072 8.69125 9.20138 9.00064 8.40977 9.00048H7.66324C7.40679 9.00037 7.15283 9.05008 6.91588 9.14676C6.67894 9.24344 6.46365 9.3852 6.28234 9.56393C6.10102 9.74267 5.95723 9.95487 5.85918 10.1884C5.76114 10.4219 5.71076 10.6722 5.71094 10.925V12.986C6.11294 13.0545 7.9504 13.0926 8.37646 13.0926C8.42456 13.0926 8.47013 13.0926 8.51848 13.0897C9.51778 13.0729 10.5023 12.8486 11.4077 12.4315L11.4258 12.4226C12.5841 11.889 13.5763 11.0596 14.2995 10.0205C15.0226 8.98138 15.4504 7.77047 15.5385 6.51343C15.5505 6.34965 15.5566 6.18575 15.5566 6.01901C15.5542 5.8557 15.5481 5.69192 15.5361 5.52814Z" fill="#2AC8CE"/>
</svg>
