<svg width="20" height="21" viewBox="0 0 20 21" fill="none" xmlns="http://www.w3.org/2000/svg">
<path fill-rule="evenodd" clip-rule="evenodd" d="M9.05164 0.159637C8.97953 0.170126 8.71403 0.207845 8.46164 0.243466C6.08966 0.57826 3.78188 1.89956 2.21745 3.81859C1.11393 5.17224 0.387052 6.80254 0.0837474 8.60423C-0.0279158 9.26743 -0.0279158 11.016 0.0837474 11.6792C0.2649 12.7551 0.540583 13.617 1.01101 14.5779C2.59283 17.8091 5.89736 19.9872 9.44537 20.1372C10.0147 20.1613 10.0706 20.1565 10.2424 20.0688C10.4913 19.9418 10.6207 19.6932 10.5922 19.3966C10.5516 18.974 10.241 18.7525 9.68701 18.7511C8.64965 18.7484 7.33495 18.4224 6.25459 17.8999C5.35014 17.4625 4.67042 16.9848 3.96635 16.2917C3.20201 15.5393 2.65838 14.7809 2.21422 13.8473C1.65123 12.6641 1.38162 11.4641 1.38162 10.1417C1.38162 8.81931 1.65123 7.61929 2.21422 6.43606C3.06317 4.65165 4.45474 3.25561 6.25459 2.38265C7.44334 1.80616 8.64913 1.53146 9.99127 1.53146C11.3253 1.53146 12.4901 1.79357 13.6967 2.36521C16.3257 3.61081 18.1549 6.1271 18.5334 9.01848C18.5705 9.30218 18.6009 9.67662 18.6009 9.85057C18.6009 10.383 18.8224 10.6963 19.2313 10.7424C19.5217 10.7751 19.755 10.6604 19.8995 10.4139C20.0107 10.2241 20.0121 10.2112 19.9863 9.60227C19.8838 7.17423 18.8373 4.82433 17.0728 3.05971C15.5997 1.58649 13.7552 0.627299 11.6957 0.263484C11.2649 0.187347 10.9416 0.164182 10.1661 0.15378C9.62525 0.146481 9.12375 0.149147 9.05164 0.159637ZM9.57608 4.79111C8.96489 4.87573 8.73514 4.92272 8.37423 5.03701C6.49545 5.63199 5.10156 7.20814 4.71836 9.17097C4.6192 9.67889 4.6192 10.6045 4.71836 11.1124C5.04632 12.7924 6.08249 14.1639 7.60207 14.9295C8.11314 15.187 8.27957 15.217 8.532 15.0972C8.9464 14.9005 9.07043 14.3736 8.78277 14.0317C8.72071 13.9579 8.48747 13.8079 8.26191 13.6967C6.47338 12.8146 5.61521 10.7784 6.23877 8.89606C6.6346 7.70111 7.55085 6.7848 8.74571 6.38895C10.6292 5.7649 12.664 6.62339 13.5473 8.4148C13.6575 8.63836 13.8074 8.87123 13.881 8.93312C14.3226 9.30476 15.0172 8.96625 15.0172 8.37944C15.0172 8.16384 14.6064 7.36649 14.2571 6.90412C13.4689 5.86079 12.2779 5.12075 10.9955 4.87743C10.635 4.80908 9.80924 4.75882 9.57608 4.79111ZM10.5813 10.2456C10.4611 10.3023 10.3197 10.3955 10.2671 10.4528C10.1237 10.609 9.99333 10.928 9.99223 11.1254C9.99101 11.3504 12.4782 18.8283 12.6312 19.0594C12.9296 19.5103 13.7084 19.5829 14.1144 19.1976C14.3014 19.0201 14.3558 18.8868 14.8413 17.4189C15.0878 16.6737 15.3374 15.9799 15.3961 15.8773C15.4548 15.7745 15.5771 15.6414 15.6678 15.5813C15.7586 15.5212 16.4704 15.2592 17.2497 14.9991C18.7795 14.4885 18.869 14.4519 19.0466 14.265C19.4319 13.8593 19.3593 13.0802 18.9084 12.7818C18.6787 12.6298 11.2004 10.1416 10.9749 10.1421C10.8786 10.1424 10.7015 10.1889 10.5813 10.2456Z" fill="#BBC5D3"/>
</svg>
