<svg width="18" height="12" viewBox="0 0 18 12" fill="none" xmlns="http://www.w3.org/2000/svg">
<path d="M12.7505 11.2087H11.4922C11.1505 11.2087 10.8672 10.9253 10.8672 10.5837C10.8672 10.242 11.1505 9.95866 11.4922 9.95866H12.7505C14.9339 9.95866 16.7089 8.18366 16.7089 6.00033C16.7089 3.81699 14.9339 2.04199 12.7505 2.04199H11.5005C11.1589 2.04199 10.8755 1.75866 10.8755 1.41699C10.8755 1.07533 11.1505 0.791992 11.5005 0.791992H12.7505C15.6255 0.791992 17.9589 3.12533 17.9589 6.00033C17.9589 8.87533 15.6255 11.2087 12.7505 11.2087Z" fill="white"/>
<path d="M6.5013 11.2087H5.2513C2.3763 11.2087 0.0429688 8.87533 0.0429688 6.00033C0.0429688 3.12533 2.3763 0.791992 5.2513 0.791992H6.5013C6.84297 0.791992 7.1263 1.07533 7.1263 1.41699C7.1263 1.75866 6.84297 2.04199 6.5013 2.04199H5.2513C3.06797 2.04199 1.29297 3.81699 1.29297 6.00033C1.29297 8.18366 3.06797 9.95866 5.2513 9.95866H6.5013C6.84297 9.95866 7.1263 10.242 7.1263 10.5837C7.1263 10.9253 6.84297 11.2087 6.5013 11.2087Z" fill="white"/>
<path d="M12.3346 6.625H5.66797C5.3263 6.625 5.04297 6.34167 5.04297 6C5.04297 5.65833 5.3263 5.375 5.66797 5.375H12.3346C12.6763 5.375 12.9596 5.65833 12.9596 6C12.9596 6.34167 12.6763 6.625 12.3346 6.625Z" fill="white"/>
</svg>
