<svg width="54" height="54" viewBox="0 0 54 54" fill="none" xmlns="http://www.w3.org/2000/svg">
<path fill-rule="evenodd" clip-rule="evenodd" d="M41.2904 7.91852C37.0797 4.69311 31.9017 2.98701 26.5984 3.07765C21.2951 3.1683 16.1785 5.05036 12.0805 8.41778C7.98245 11.7852 5.14415 16.4399 4.0271 21.625C2.91004 26.8102 3.57994 32.2207 5.92785 36.9768C8.27576 41.7329 12.1636 45.5548 16.9591 47.8211C21.7546 50.0874 27.1758 50.6647 32.3411 49.4592C37.5063 48.2537 42.1119 45.3363 45.4088 41.1813C48.7057 37.0264 50.5 31.8783 50.5 26.5742C50.5 25.7458 51.1716 25.0742 52 25.0742C52.8285 25.0742 53.5 25.7458 53.5 26.5742C53.5 32.5554 51.4766 38.3607 47.7588 43.0461C44.0411 47.7314 38.8476 51.0213 33.0229 52.3807C27.1983 53.7401 21.085 53.0891 15.6773 50.5335C10.2696 47.9779 5.88542 43.668 3.23778 38.3048C0.590137 32.9415 -0.165276 26.8403 1.09438 20.9932C2.35404 15.1462 5.55468 9.89725 10.1758 6.09994C14.797 2.30263 20.5668 0.180307 26.5472 0.0780913C32.5275 -0.0241248 38.3665 1.89978 43.1147 5.53694C43.7724 6.04071 43.8971 6.98223 43.3933 7.63988C42.8896 8.29754 41.9481 8.42229 41.2904 7.91852Z" fill="#1449A9"/>
</svg>
