<svg width="20" height="21" viewBox="0 0 20 21" fill="none" xmlns="http://www.w3.org/2000/svg">
<path d="M20 10.5C20 16.0228 15.5228 20.5 10 20.5C4.47715 20.5 0 16.0228 0 10.5C0 4.97715 4.47715 0.5 10 0.5C15.5228 0.5 20 4.97715 20 10.5ZM2 10.5C2 14.9183 5.58172 18.5 10 18.5C14.4183 18.5 18 14.9183 18 10.5C18 6.08172 14.4183 2.5 10 2.5C5.58172 2.5 2 6.08172 2 10.5Z" fill="white" fill-opacity="0.16"/>
<path d="M10 1.5C10 0.947715 9.55116 0.494819 9.00163 0.549955C7.37656 0.713004 5.8107 1.2723 4.4443 2.1853C2.79981 3.28412 1.51808 4.8459 0.761205 6.67317C0.00432836 8.50043 -0.193705 10.5111 0.192147 12.4509C0.577999 14.3907 1.53041 16.1725 2.92893 17.5711C4.32746 18.9696 6.10929 19.922 8.0491 20.3079C9.98891 20.6937 11.9996 20.4957 13.8268 19.7388C15.6541 18.9819 17.2159 17.7002 18.3147 16.0557C19.2277 14.6893 19.787 13.1234 19.95 11.4984C20.0052 10.9488 19.5523 10.5 19 10.5V10.5C18.4477 10.5 18.0064 10.9494 17.9376 11.4974C17.7832 12.7262 17.3449 13.9072 16.6518 14.9446C15.7727 16.2602 14.5233 17.2855 13.0615 17.891C11.5997 18.4965 9.99113 18.655 8.43928 18.3463C6.88743 18.0376 5.46197 17.2757 4.34315 16.1569C3.22433 15.038 2.4624 13.6126 2.15372 12.0607C1.84504 10.5089 2.00346 8.90034 2.60896 7.43853C3.21446 5.97672 4.23984 4.72729 5.55544 3.84824C6.59275 3.15513 7.77376 2.71683 9.00258 2.56242C9.55055 2.49356 10 2.05228 10 1.5V1.5Z" fill="white"/>
</svg>
