<svg width="24" height="25" viewBox="0 0 24 25" fill="none" xmlns="http://www.w3.org/2000/svg">
<path d="M20 15.4648C18.48 15.4648 17.25 14.2348 17.25 12.7148C17.25 11.1948 18.48 9.96484 20 9.96484C21.52 9.96484 22.75 11.1948 22.75 12.7148C22.75 14.2348 21.52 15.4648 20 15.4648ZM20 11.4648C19.31 11.4648 18.75 12.0248 18.75 12.7148C18.75 13.4048 19.31 13.9648 20 13.9648C20.69 13.9648 21.25 13.4048 21.25 12.7148C21.25 12.0248 20.69 11.4648 20 11.4648Z" fill="white"/>
<path d="M20 7.46484C18.48 7.46484 17.25 6.23484 17.25 4.71484C17.25 3.19484 18.48 1.96484 20 1.96484C21.52 1.96484 22.75 3.19484 22.75 4.71484C22.75 6.23484 21.52 7.46484 20 7.46484ZM20 3.46484C19.31 3.46484 18.75 4.02484 18.75 4.71484C18.75 5.40484 19.31 5.96484 20 5.96484C20.69 5.96484 21.25 5.40484 21.25 4.71484C21.25 4.02484 20.69 3.46484 20 3.46484Z" fill="white"/>
<path d="M20 23.4648C18.48 23.4648 17.25 22.2348 17.25 20.7148C17.25 19.1948 18.48 17.9648 20 17.9648C21.52 17.9648 22.75 19.1948 22.75 20.7148C22.75 22.2348 21.52 23.4648 20 23.4648ZM20 19.4648C19.31 19.4648 18.75 20.0248 18.75 20.7148C18.75 21.4048 19.31 21.9648 20 21.9648C20.69 21.9648 21.25 21.4048 21.25 20.7148C21.25 20.0248 20.69 19.4648 20 19.4648Z" fill="white"/>
<path d="M4 15.4648C2.48 15.4648 1.25 14.2348 1.25 12.7148C1.25 11.1948 2.48 9.96484 4 9.96484C5.52 9.96484 6.75 11.1948 6.75 12.7148C6.75 14.2348 5.52 15.4648 4 15.4648ZM4 11.4648C3.31 11.4648 2.75 12.0248 2.75 12.7148C2.75 13.4048 3.31 13.9648 4 13.9648C4.69 13.9648 5.25 13.4048 5.25 12.7148C5.25 12.0248 4.69 11.4648 4 11.4648Z" fill="white"/>
<path d="M18 13.4648H6C5.59 13.4648 5.25 13.1248 5.25 12.7148C5.25 12.3048 5.59 11.9648 6 11.9648H18C18.41 11.9648 18.75 12.3048 18.75 12.7148C18.75 13.1248 18.41 13.4648 18 13.4648Z" fill="white"/>
<path d="M18 21.4648H14C11.58 21.4648 10.25 20.1348 10.25 17.7148V7.71484C10.25 5.29484 11.58 3.96484 14 3.96484H18C18.41 3.96484 18.75 4.30484 18.75 4.71484C18.75 5.12484 18.41 5.46484 18 5.46484H14C12.42 5.46484 11.75 6.13484 11.75 7.71484V17.7148C11.75 19.2948 12.42 19.9648 14 19.9648H18C18.41 19.9648 18.75 20.3048 18.75 20.7148C18.75 21.1248 18.41 21.4648 18 21.4648Z" fill="white"/>
</svg>
