<svg width="23" height="24" viewBox="0 0 23 24" fill="none" xmlns="http://www.w3.org/2000/svg">
<path d="M12.0116 16.5455C11.9117 16.5455 11.8345 16.5136 11.78 16.45C11.7346 16.3772 11.721 16.2955 11.7392 16.2045L13.6186 7.34091C13.6367 7.24091 13.6866 7.15908 13.7684 7.09542C13.8501 7.03183 13.9363 7 14.0271 7H17.6497C18.6575 7 19.4656 7.20908 20.0738 7.62725C20.6913 8.04548 21 8.64998 21 9.44089C21 9.66814 20.9728 9.90454 20.9182 10.15C20.6913 11.1954 20.2328 11.9682 19.5428 12.4682C18.8618 12.9682 17.9266 13.2182 16.7373 13.2182H14.8987L14.2723 16.2045C14.2541 16.3045 14.2041 16.3863 14.1225 16.45C14.0408 16.5136 13.9545 16.5455 13.8637 16.5455H12.0116ZM16.8326 11.3364C17.2139 11.3364 17.5453 11.2318 17.8268 11.0227C18.1173 10.8136 18.308 10.5136 18.3988 10.1227C18.426 9.96813 18.4396 9.8318 18.4396 9.71363C18.4396 9.44997 18.3625 9.24997 18.2081 9.11364C18.0537 8.96815 17.7905 8.89547 17.4182 8.89547H15.7839L15.2664 11.3364H16.8326Z" fill="#FE0420"/>
<path d="M5.7802 17C4.66947 17 3.75945 16.7407 3.05007 16.2222C2.35002 15.6944 2 14.9445 2 13.9722C2 13.7685 2.02335 13.5185 2.06999 13.2222C2.19139 12.5556 2.36405 11.7546 2.58805 10.8194C3.22273 8.27314 4.86086 7 7.50234 7C8.22104 7 8.86506 7.12036 9.43445 7.36107C10.0038 7.59253 10.4518 7.94442 10.7785 8.41666C11.1052 8.87958 11.2686 9.43518 11.2686 10.0833C11.2686 10.2777 11.2452 10.5231 11.1985 10.8194C11.0585 11.6435 10.8905 12.4445 10.6945 13.2222C10.3678 14.4907 9.80313 15.4398 9.00041 16.0694C8.19769 16.6898 7.12434 17 5.7802 17ZM5.97622 15C6.49898 15 6.94227 14.8472 7.30632 14.5417C7.6797 14.2361 7.94571 13.7685 8.10434 13.1389C8.31902 12.2685 8.48242 11.5092 8.59442 10.8611C8.63173 10.6666 8.65038 10.4676 8.65038 10.2638C8.65038 9.42126 8.20702 8.99994 7.32035 8.99994C6.79759 8.99994 6.3496 9.15272 5.97622 9.45827C5.61224 9.7639 5.35086 10.2315 5.19223 10.8611C5.02419 11.4815 4.85616 12.2407 4.68819 13.1389C4.65081 13.324 4.63216 13.5185 4.63216 13.7222C4.63216 14.5741 5.08023 15 5.97622 15Z" fill="#FE0420"/>
</svg>
