<svg width="24" height="8" viewBox="0 0 24 8" fill="none" xmlns="http://www.w3.org/2000/svg">
<path fill-rule="evenodd" clip-rule="evenodd" d="M19.2441 0.234315C19.5695 -0.0781048 20.0972 -0.0781048 20.4226 0.234315L23.7559 3.43432C23.9122 3.58434 24 3.78783 24 4C24 4.21217 23.9122 4.41566 23.7559 4.56569L20.4226 7.76569C20.0972 8.07811 19.5695 8.07811 19.2441 7.76569C18.9186 7.45327 18.9186 6.94673 19.2441 6.63431L21.9882 4L19.2441 1.36569C18.9186 1.05327 18.9186 0.546734 19.2441 0.234315Z" fill="#193EFF"/>
<path fill-rule="evenodd" clip-rule="evenodd" d="M-8.74226e-08 4C-3.91404e-08 3.44771 0.396056 3 0.884615 3L22.1154 3C22.6039 3 23 3.44772 23 4C23 4.55229 22.6039 5 22.1154 5L0.884615 5C0.396056 5 -1.35705e-07 4.55228 -8.74226e-08 4Z" fill="#193EFF"/>
</svg>
