<svg width="34" height="34" viewBox="0 0 34 34" fill="none" xmlns="http://www.w3.org/2000/svg">
<path d="M17 32C8.72558 32 2 25.2744 2 17C2 8.72558 8.72558 2 17 2C25.2744 2 32 8.72558 32 17C32 25.2744 25.2744 32 17 32ZM17 4.09302C9.88372 4.09302 4.09302 9.88372 4.09302 17C4.09302 24.1163 9.88372 29.907 17 29.907C24.1163 29.907 29.907 24.1163 29.907 17C29.907 9.88372 24.1163 4.09302 17 4.09302Z" fill="#FFC530"/>
<path d="M17 8.66663C12.4083 8.66663 8.66663 12.4083 8.66663 17C8.66663 21.5916 12.4083 25.3333 17 25.3333C21.5916 25.3333 25.3333 21.5916 25.3333 17C25.3333 12.4083 21.5916 8.66663 17 8.66663ZM20.625 19.975C20.5083 20.175 20.3 20.2833 20.0833 20.2833C19.975 20.2833 19.8666 20.2583 19.7666 20.1916L17.1833 18.65C16.5416 18.2666 16.0666 17.425 16.0666 16.6833V13.2666C16.0666 12.925 16.35 12.6416 16.6916 12.6416C17.0333 12.6416 17.3166 12.925 17.3166 13.2666V16.6833C17.3166 16.9833 17.5666 17.425 17.825 17.575L20.4083 19.1166C20.7083 19.2916 20.8083 19.675 20.625 19.975Z" fill="#292D32"/>
</svg>
