<svg width="24" height="21" viewBox="0 0 24 21" fill="none" xmlns="http://www.w3.org/2000/svg">
<path d="M17.9983 6.7057C17.5699 6.46749 17.022 6.46749 16.5373 6.7057L13.1237 8.66589L10.8059 9.91142L7.45547 11.8648C7.02701 12.103 6.47915 12.103 5.9945 11.8648L3.37459 10.3198C2.94614 10.0816 2.64411 9.60514 2.64411 9.07426V6.10676C2.64411 5.63033 2.88994 5.1607 3.37459 4.86123L5.9945 3.37748C6.42296 3.13926 6.97082 3.13926 7.45547 3.37748L10.0754 4.92248C10.5038 5.1607 10.8059 5.63713 10.8059 6.16802V8.1282L13.1237 6.82141V4.80678C13.1237 4.33034 12.8779 3.86072 12.3933 3.56124L7.51868 0.770704C7.09023 0.532487 6.54236 0.532487 6.05772 0.770704L1.06374 3.6225C0.579087 3.86071 0.333252 4.33715 0.333252 4.80678V10.381C0.333252 10.8575 0.579087 11.3271 1.06374 11.6266L6.00152 14.4171C6.42998 14.6553 6.97784 14.6553 7.46249 14.4171L10.8129 12.5182L13.1308 11.2114L16.4812 9.31248C16.9096 9.07426 17.4575 9.07426 17.9421 9.31248L20.562 10.7962C20.9905 11.0344 21.2925 11.5109 21.2925 12.0418V15.0093C21.2925 15.4857 21.0467 15.9553 20.562 16.2548L18.0053 17.7385C17.5769 17.9768 17.029 17.9768 16.5444 17.7385L13.9174 16.2548C13.489 16.0166 13.187 15.5401 13.187 15.0093V13.1103L10.8691 14.4171V16.3773C10.8691 16.8537 11.1149 17.3234 11.5996 17.6228L16.5373 20.4134C16.9658 20.6516 17.5137 20.6516 17.9983 20.4134L22.9361 17.6228C23.3646 17.3846 23.6666 16.9082 23.6666 16.3773V10.7418C23.6666 10.2653 23.4208 9.79572 22.9361 9.49624L17.9983 6.7057Z" fill="#8247E5"/>
</svg>
