<svg width="62" height="62" viewBox="0 0 62 62" fill="none" xmlns="http://www.w3.org/2000/svg">
<circle cx="31" cy="31" r="31" fill="url(#paint0_linear_23_1114)"/>
<path d="M45.6016 17.5625H41.8281V15.9219C41.8281 15.7414 41.6805 15.5938 41.5 15.5938H20.5C20.3195 15.5938 20.1719 15.7414 20.1719 15.9219V17.5625H16.3984C15.9198 17.5625 15.4608 17.7526 15.1223 18.0911C14.7839 18.4295 14.5938 18.8886 14.5938 19.3672V25.4375C14.5938 28.7885 17.0547 31.5734 20.2621 32.082C20.8937 36.848 24.7246 40.6051 29.5234 41.126V45.4408H21.4844C20.7584 45.4408 20.1719 46.0273 20.1719 46.7533V48.0781C20.1719 48.2586 20.3195 48.4062 20.5 48.4062H41.5C41.6805 48.4062 41.8281 48.2586 41.8281 48.0781V46.7533C41.8281 46.0273 41.2416 45.4408 40.5156 45.4408H32.4766V41.126C37.2754 40.6051 41.1062 36.848 41.7379 32.082C44.9453 31.5734 47.4062 28.7885 47.4062 25.4375V19.3672C47.4062 18.8886 47.2161 18.4295 46.8777 18.0911C46.5392 17.7526 46.0802 17.5625 45.6016 17.5625ZM20.1719 29.0305C18.6502 28.5424 17.5469 27.115 17.5469 25.4375V20.5156H20.1719V29.0305ZM44.4531 25.4375C44.4531 27.1191 43.3498 28.5465 41.8281 29.0305V20.5156H44.4531V25.4375Z" fill="white"/>
<defs>
<linearGradient id="paint0_linear_23_1114" x1="11" y1="12.5" x2="52.5424" y2="48.8644" gradientUnits="userSpaceOnUse">
<stop stop-color="#CBCBCB"/>
<stop offset="0.671363" stop-color="#F4F4F4"/>
<stop offset="1" stop-color="#D0D0D0"/>
</linearGradient>
</defs>
</svg>
