<svg width="16" height="16" viewBox="0 0 16 16" fill="none" xmlns="http://www.w3.org/2000/svg">
<path d="M6.96617 4.97998C6.8395 4.97998 6.71281 4.93333 6.61281 4.83333L4.48615 2.70667L2.35948 4.83333C2.16614 5.02667 1.84615 5.02667 1.65281 4.83333C1.45948 4.64 1.45948 4.32 1.65281 4.12667L4.13283 1.64665C4.22617 1.55331 4.35281 1.5 4.48615 1.5C4.61948 1.5 4.74617 1.55331 4.8395 1.64665L7.31948 4.12667C7.51281 4.32 7.51281 4.64 7.31948 4.83333C7.21948 4.93333 7.09283 4.97998 6.96617 4.97998Z" fill="#0071FF"/>
<path d="M4.48698 14.5C4.21365 14.5 3.98698 14.2733 3.98698 14V2C3.98698 1.72667 4.21365 1.5 4.48698 1.5C4.76032 1.5 4.98698 1.72667 4.98698 2V14C4.98698 14.2733 4.76032 14.5 4.48698 14.5Z" fill="#0071FF"/>
<path d="M11.52 14.4992C11.3867 14.4992 11.26 14.4459 11.1667 14.3525L8.68667 11.8725C8.49334 11.6792 8.49334 11.3592 8.68667 11.1658C8.88001 10.9725 9.2 10.9725 9.39334 11.1658L11.52 13.2925L13.6466 11.1658C13.84 10.9725 14.16 10.9725 14.3533 11.1658C14.5467 11.3592 14.5467 11.6792 14.3533 11.8725L11.8733 14.3525C11.78 14.4459 11.6467 14.4992 11.52 14.4992Z" fill="#0071FF"/>
<path d="M11.513 14.5C11.2397 14.5 11.013 14.2733 11.013 14V2C11.013 1.72667 11.2397 1.5 11.513 1.5C11.7863 1.5 12.013 1.72667 12.013 2V14C12.013 14.2733 11.793 14.5 11.513 14.5Z" fill="#0071FF"/>
</svg>
