<svg width="96" height="96" viewBox="0 0 96 96" fill="none" xmlns="http://www.w3.org/2000/svg">
<path d="M48 88.1211C70 88.1211 88 70.1211 88 48.1211C88 26.1211 70 8.12109 48 8.12109C26 8.12109 8 26.1211 8 48.1211C8 70.1211 26 88.1211 48 88.1211Z" fill="#3CD65E" fill-opacity="0.15"/>
<path d="M48 88C70 88 88 70 88 48C88 26 70 8 48 8C26 8 8 26 8 48C8 70 26 88 48 88Z" stroke="#3CD65E" stroke-width="1.5" stroke-linecap="round" stroke-linejoin="round"/>
<path d="M31 47.9997L42.32 59.3197L65 36.6797" stroke="#3CD65E" stroke-width="1.5" stroke-linecap="round" stroke-linejoin="round"/>
</svg>
