<svg width="70" height="71" viewBox="0 0 70 71" fill="none" xmlns="http://www.w3.org/2000/svg">
<path d="M34.9987 5.8374C18.9279 5.8374 5.83203 18.9332 5.83203 35.0041C5.83203 51.0749 18.9279 64.1707 34.9987 64.1707C51.0695 64.1707 64.1654 51.0749 64.1654 35.0041C64.1654 18.9332 51.0695 5.8374 34.9987 5.8374ZM48.9404 28.2957L32.4029 44.8332C31.9945 45.2416 31.4404 45.4749 30.857 45.4749C30.2737 45.4749 29.7195 45.2416 29.3112 44.8332L21.057 36.5791C20.2112 35.7332 20.2112 34.3332 21.057 33.4874C21.9029 32.6416 23.3029 32.6416 24.1487 33.4874L30.857 40.1957L45.8487 25.2041C46.6945 24.3582 48.0945 24.3582 48.9404 25.2041C49.7862 26.0499 49.7862 27.4207 48.9404 28.2957Z" fill="#AAEA00"/>
</svg>
