<svg width="20" height="19" viewBox="0 0 20 19" fill="none" xmlns="http://www.w3.org/2000/svg">
<path d="M11.4658 14.8993C11.3153 14.8993 11.1649 14.8438 11.0462 14.7251C10.8166 14.4955 10.8166 14.1155 11.0462 13.8859L15.432 9.50009L11.0462 5.11426C10.8166 4.88468 10.8166 4.50468 11.0462 4.27509C11.2758 4.04551 11.6558 4.04551 11.8853 4.27509L16.6908 9.08051C16.9203 9.31009 16.9203 9.69009 16.6908 9.91968L11.8853 14.7251C11.7666 14.8438 11.6162 14.8993 11.4658 14.8993Z" fill="#292D32"/>
<path d="M16.1365 10.0938H2.81274C2.48816 10.0938 2.21899 9.82458 2.21899 9.5C2.21899 9.17542 2.48816 8.90625 2.81274 8.90625H16.1365C16.4611 8.90625 16.7302 9.17542 16.7302 9.5C16.7302 9.82458 16.4611 10.0938 16.1365 10.0938Z" fill="#292D32"/>
</svg>
