<svg width="19" height="19" viewBox="0 0 19 19" fill="none" xmlns="http://www.w3.org/2000/svg">
<path d="M9.5 1.1875C4.90957 1.1875 1.1875 4.90957 1.1875 9.5C1.1875 14.0904 4.90957 17.8125 9.5 17.8125C14.0904 17.8125 17.8125 14.0904 17.8125 9.5C17.8125 4.90957 14.0904 1.1875 9.5 1.1875ZM10.0938 13.5078C10.0938 13.5895 10.027 13.6562 9.94531 13.6562H9.05469C8.97305 13.6562 8.90625 13.5895 8.90625 13.5078V8.46094C8.90625 8.3793 8.97305 8.3125 9.05469 8.3125H9.94531C10.027 8.3125 10.0938 8.3793 10.0938 8.46094V13.5078ZM9.5 7.125C9.26694 7.12024 9.04503 7.02432 8.88189 6.85781C8.71875 6.69131 8.62737 6.46748 8.62737 6.23438C8.62737 6.00127 8.71875 5.77744 8.88189 5.61094C9.04503 5.44443 9.26694 5.34851 9.5 5.34375C9.73306 5.34851 9.95497 5.44443 10.1181 5.61094C10.2813 5.77744 10.3726 6.00127 10.3726 6.23438C10.3726 6.46748 10.2813 6.69131 10.1181 6.85781C9.95497 7.02432 9.73306 7.12024 9.5 7.125Z" fill="#949CB2"/>
</svg>
