<svg width="25" height="24" viewBox="0 0 25 24" fill="none" xmlns="http://www.w3.org/2000/svg">
<g clip-path="url(#clip0_1_174)">
<circle cx="12.75" cy="12" r="10" fill="white"/>
<path fill-rule="evenodd" clip-rule="evenodd" d="M24.75 12C24.75 18.627 19.377 24 12.75 24C6.123 24 0.75 18.627 0.75 12C0.75 5.373 6.123 0 12.75 0C19.377 0 24.75 5.373 24.75 12ZM13.18 8.859C12.013 9.344 9.68 10.349 6.182 11.873C5.614 12.099 5.316 12.32 5.289 12.536C5.243 12.902 5.701 13.046 6.323 13.241C6.408 13.268 6.496 13.295 6.586 13.325C7.199 13.524 8.023 13.757 8.451 13.766C8.84 13.774 9.274 13.614 9.753 13.286C13.021 11.079 14.708 9.964 14.814 9.94C14.889 9.923 14.993 9.901 15.063 9.964C15.133 10.026 15.126 10.144 15.119 10.176C15.073 10.369 13.279 12.038 12.349 12.902C12.059 13.171 11.854 13.362 11.812 13.406C11.718 13.503 11.622 13.596 11.53 13.685C10.96 14.233 10.534 14.645 11.554 15.317C12.044 15.64 12.436 15.907 12.827 16.173C13.254 16.464 13.68 16.754 14.232 17.116C14.372 17.208 14.506 17.303 14.637 17.396C15.134 17.751 15.581 18.069 16.133 18.019C16.453 17.989 16.785 17.688 16.953 16.789C17.35 14.663 18.132 10.059 18.313 8.161C18.324 8.00341 18.3173 7.84508 18.293 7.689C18.2784 7.56293 18.2171 7.44694 18.121 7.364C17.978 7.247 17.756 7.222 17.656 7.224C17.205 7.232 16.513 7.473 13.18 8.859Z" fill="#4294F5"/>
</g>
<defs>
<clipPath id="clip0_1_174">
<rect width="24" height="24" fill="white" transform="translate(0.75)"/>
</clipPath>
</defs>
</svg>
