<svg width="24" height="24" viewBox="0 0 24 24" fill="none" xmlns="http://www.w3.org/2000/svg">
<g clip-path="url(#clip0_24_7000)">
<path d="M12 0C18.6274 0 24 5.37257 24 12C24 18.6274 18.6274 24 12 24C5.37257 24 0 18.6274 0 12C0 5.37257 5.37257 0 12 0Z" fill="#FFE81C"/>
<path d="M19.7981 6.50941L18.3862 11.0955H14.837L14.2891 11.5131L12.3656 19.4735H7.0205L8.02027 16.501L8.0957 16.2109L5.90896 17.871L8.93639 13.4708L9.64884 11.0955H4.8125L6.21136 6.50941H12.269H12.7387L15.2203 4.91992L14.2082 6.50941H19.7981Z" fill="#3F3F3F"/>
<path d="M17.8933 10.4091L18.8979 7.32129H14.4298L13.1982 9.33592L16.009 10.396L17.8933 10.4091Z" fill="#FFE81C"/>
<path d="M8.13184 15.5357L14.4973 10.7117L11.6866 9.52949L11.8587 9.2504L13.5373 6.61932L13.5504 6.59326L8.72704 9.68378L11.2512 11.0017L8.13184 15.5357Z" fill="#FFE81C"/>
<path d="M11.7024 18.5783L13.1273 13.1357L8.89441 16.4327L8.20801 18.5755H11.7024V18.5783Z" fill="#FFE81C"/>
<path d="M6.93982 9.76929L10.7579 7.33157L6.66348 7.32129L5.71582 10.3933L8.44291 10.4091L6.93982 9.76929Z" fill="#FFE81C"/>
</g>
<defs>
<clipPath id="clip0_24_7000">
<rect width="24" height="24" fill="white"/>
</clipPath>
</defs>
</svg>
