<svg width="32" height="33" viewBox="0 0 32 33" fill="none" xmlns="http://www.w3.org/2000/svg">
<path d="M29.3334 11.8337C29.3334 16.1803 26.1334 19.767 21.9734 20.3937V20.3137C21.56 15.1403 17.36 10.9403 12.1467 10.527H12.1067C12.7334 6.36699 16.32 3.16699 20.6667 3.16699C25.4534 3.16699 29.3334 7.04699 29.3334 11.8337Z" fill="#2A4DFD"/>
<path d="M19.9733 20.4733C19.64 16.2467 16.2533 12.86 12.0267 12.5267C11.8 12.5133 11.56 12.5 11.3333 12.5C6.54666 12.5 2.66666 16.38 2.66666 21.1667C2.66666 25.9533 6.54666 29.8333 11.3333 29.8333C16.12 29.8333 20 25.9533 20 21.1667C20 20.94 19.9867 20.7 19.9733 20.4733ZM12.5067 22.34L11.3333 24.5L10.16 22.34L7.99999 21.1667L10.16 19.9933L11.3333 17.8333L12.5067 19.9933L14.6667 21.1667L12.5067 22.34Z" fill="#2A4DFD"/>
</svg>
