<svg width="32" height="33" viewBox="0 0 32 33" fill="none" xmlns="http://www.w3.org/2000/svg">
<path d="M20 21.1667C20 25.9533 16.12 29.8333 11.3334 29.8333C6.54669 29.8333 2.66669 25.9533 2.66669 21.1667C2.66669 16.38 6.54669 12.5 11.3334 12.5C11.56 12.5 11.8 12.5133 12.0267 12.5267C16.2534 12.86 19.64 16.2467 19.9734 20.4733C19.9867 20.7 20 20.94 20 21.1667Z" fill="#2A4DFD"/>
<path d="M29.3334 11.8337C29.3334 16.1803 26.1334 19.767 21.9734 20.3937V20.3137C21.56 15.1403 17.36 10.9403 12.1467 10.527H12.1067C12.7334 6.36699 16.32 3.16699 20.6667 3.16699C25.4534 3.16699 29.3334 7.04699 29.3334 11.8337Z" fill="#2A4DFD"/>
<path d="M7.45342 3.16699H4.00008C3.26675 3.16699 2.66675 3.76699 2.66675 4.50033V7.95366C2.66675 9.14033 4.10675 9.74033 4.94675 8.90033L8.40008 5.44699C9.22675 4.60699 8.64008 3.16699 7.45342 3.16699Z" fill="#2A4DFD"/>
<path d="M24.5467 29.8334H28C28.7334 29.8334 29.3334 29.2334 29.3334 28.5V25.0467C29.3334 23.86 27.8934 23.26 27.0534 24.1L23.6 27.5534C22.7734 28.3934 23.36 29.8334 24.5467 29.8334Z" fill="#2A4DFD"/>
</svg>
