<svg width="24" height="24" viewBox="0 0 24 24" fill="none" xmlns="http://www.w3.org/2000/svg">
<path d="M12 0C5.37322 0 0 5.37322 0 12C0 18.6268 5.37322 24 12 24C18.6268 24 24 18.6268 24 12C24 5.37322 18.6268 0 12 0ZM17.767 9.04554C17.775 9.17143 17.775 9.30268 17.775 9.43126C17.775 13.3634 14.7804 17.8928 9.30804 17.8928C7.62054 17.8928 6.05626 17.4026 4.73839 16.5589C4.97946 16.5857 5.20982 16.5965 5.45626 16.5965C6.84911 16.5965 8.12946 16.125 9.15 15.3268C7.84285 15.3 6.74465 14.4428 6.36965 13.2643C6.82768 13.3313 7.24018 13.3313 7.71161 13.2107C7.03855 13.074 6.4336 12.7085 5.99951 12.1762C5.56542 11.644 5.32898 10.9779 5.33035 10.2911V10.2536C5.72411 10.4759 6.1875 10.6125 6.67232 10.6313C6.26476 10.3596 5.93051 9.99163 5.69923 9.5599C5.46794 9.12817 5.34676 8.64604 5.34643 8.15626C5.34643 7.60178 5.49107 7.09554 5.75089 6.65626C6.49795 7.5759 7.43017 8.32806 8.48696 8.86384C9.54374 9.39961 10.7014 9.70702 11.8848 9.76607C11.4643 7.74376 12.975 6.10715 14.7911 6.10715C15.6482 6.10715 16.4196 6.46607 16.9634 7.04465C17.6357 6.91876 18.2785 6.66696 18.8518 6.32946C18.6295 7.01785 18.1634 7.59911 17.5446 7.96607C18.1446 7.90178 18.7232 7.73572 19.2589 7.50268C18.8545 8.09732 18.3482 8.625 17.767 9.04554Z" fill="white"/>
</svg>
