<svg width="25" height="24" viewBox="0 0 25 24" fill="none" xmlns="http://www.w3.org/2000/svg">
<g clip-path="url(#clip0_1_177)">
<circle cx="12.75" cy="12" r="10" fill="white"/>
<path d="M12.75 0C6.12322 0 0.75 5.37322 0.75 12C0.75 18.6268 6.12322 24 12.75 24C19.3768 24 24.75 18.6268 24.75 12C24.75 5.37322 19.3768 0 12.75 0ZM18.517 9.04554C18.525 9.17143 18.525 9.30268 18.525 9.43126C18.525 13.3634 15.5304 17.8928 10.058 17.8928C8.37054 17.8928 6.80626 17.4026 5.48839 16.5589C5.72946 16.5857 5.95982 16.5965 6.20626 16.5965C7.59911 16.5965 8.87946 16.125 9.9 15.3268C8.59285 15.3 7.49465 14.4428 7.11965 13.2643C7.57768 13.3313 7.99018 13.3313 8.46161 13.2107C7.78855 13.074 7.1836 12.7085 6.74951 12.1762C6.31542 11.644 6.07898 10.9779 6.08035 10.2911V10.2536C6.47411 10.4759 6.9375 10.6125 7.42232 10.6313C7.01476 10.3596 6.68051 9.99163 6.44923 9.5599C6.21794 9.12817 6.09676 8.64604 6.09643 8.15626C6.09643 7.60178 6.24107 7.09554 6.50089 6.65626C7.24795 7.5759 8.18017 8.32806 9.23696 8.86384C10.2937 9.39961 11.4514 9.70702 12.6348 9.76607C12.2143 7.74376 13.725 6.10715 15.5411 6.10715C16.3982 6.10715 17.1696 6.46607 17.7134 7.04465C18.3857 6.91876 19.0285 6.66696 19.6018 6.32946C19.3795 7.01785 18.9134 7.59911 18.2946 7.96607C18.8946 7.90178 19.4732 7.73572 20.0089 7.50268C19.6045 8.09732 19.0982 8.625 18.517 9.04554Z" fill="#50BEFF"/>
</g>
<defs>
<clipPath id="clip0_1_177">
<rect width="24" height="24" fill="white" transform="translate(0.75)"/>
</clipPath>
</defs>
</svg>
