<svg width="17" height="17" viewBox="0 0 17 17" fill="none" xmlns="http://www.w3.org/2000/svg">
<g clip-path="url(#clip0_3258_52350)">
<path d="M16.5 3.13211C15.9113 3.39344 15.2787 3.56944 14.6147 3.64877C15.2927 3.24277 15.8133 2.59944 16.058 1.83277C15.424 2.20877 14.7213 2.48211 13.9733 2.62944C13.3753 1.99144 12.5213 1.59277 11.5773 1.59277C9.458 1.59277 7.90067 3.57011 8.37933 5.62277C5.652 5.48611 3.23333 4.17944 1.614 2.19344C0.754 3.66877 1.168 5.59877 2.62933 6.57611C2.092 6.55877 1.58533 6.41144 1.14333 6.16544C1.10733 7.68611 2.19733 9.10877 3.776 9.42544C3.314 9.55077 2.808 9.58011 2.29333 9.48144C2.71067 10.7854 3.92267 11.7341 5.36 11.7608C3.98 12.8428 2.24133 13.3261 0.5 13.1208C1.95267 14.0521 3.67867 14.5954 5.532 14.5954C11.6267 14.5954 15.07 9.44811 14.862 4.83144C15.5033 4.36811 16.06 3.79011 16.5 3.13211Z" fill="#F7F7F7"/>
</g>
<defs>
<clipPath id="clip0_3258_52350">
<rect width="16" height="16" fill="white" transform="translate(0.5 0.09375)"/>
</clipPath>
</defs>
</svg>
