<svg width="21" height="24" viewBox="0 0 21 24" fill="none" xmlns="http://www.w3.org/2000/svg">
<path d="M17.973 0.850046C17.3692 0.751206 16.7506 0.807822 16.1738 1.01473C15.597 1.22165 15.0806 1.57224 14.6715 2.03446C13.892 2.91834 13.6496 4.07103 13.837 5.22464C14.0068 6.26625 14.2318 7.32285 14.2822 8.32525C14.3529 9.83586 14.1259 11.3458 13.6148 12.7661C13.1521 14.0513 12.4928 15.0481 11.0808 15.2683C10.976 15.2852 10.5951 15.2973 10.4867 15.3039C10.3008 15.304 10.115 15.2928 9.93038 15.2703C8.51833 15.0491 7.85361 14.0523 7.39273 12.7595C6.88145 11.3389 6.65451 9.82872 6.72521 8.31769C6.77575 7.31907 7.00073 6.26159 7.16957 5.21811C7.35689 4.06356 7.11455 2.91181 6.33601 2.02606C5.92594 1.56373 5.40794 1.21375 4.82988 1.0084C4.25168 0.803034 3.6321 0.74891 3.02802 0.850984C1.21659 1.14872 0.0111157 2.77834 9.76473e-05 4.4873C-0.00476037 5.14568 0.171738 5.7923 0.509643 6.35399C1.07337 7.29667 1.99791 7.98267 2.80493 8.69667C3.33927 9.17267 4.26386 10.5261 4.71648 11.9933C4.99088 12.8819 5.21404 13.7815 5.43524 14.6907C5.74562 15.9572 6.17347 18.7545 6.45445 20.0237C7.01543 22.5663 8.73408 23.1421 10.4555 23.2009H10.5161C12.2376 23.1421 13.9838 22.5653 14.5456 20.0229C14.8258 18.7535 15.2517 15.9544 15.5648 14.6897C15.787 13.7853 16.0092 12.8809 16.2836 11.9923C16.7364 10.5251 17.6608 9.16708 18.1942 8.69485C19.0021 7.97987 19.9259 7.29485 20.4895 6.35212C20.8277 5.79051 21.0046 5.14389 20.9999 4.48543C20.9908 2.77367 19.7881 1.14405 17.973 0.850046Z" fill="white"/>
</svg>
