<svg width="16" height="16" viewBox="0 0 16 16" fill="none" xmlns="http://www.w3.org/2000/svg">
<rect width="16" height="16" rx="4" fill="#EB6D00"/>
<path d="M8 9.5C7.59 9.5 7.25 9.16 7.25 8.75V3.75C7.25 3.34 7.59 3 8 3C8.41 3 8.75 3.34 8.75 3.75V8.75C8.75 9.16 8.41 9.5 8 9.5Z" fill="white"/>
<path d="M8 12.7486C7.94 12.7486 7.87 12.7386 7.8 12.7286C7.74 12.7186 7.68 12.6986 7.62 12.6686C7.56 12.6486 7.5 12.6186 7.44 12.5786C7.39 12.5386 7.34 12.4986 7.29 12.4586C7.11 12.2686 7 12.0086 7 11.7486C7 11.4886 7.11 11.2286 7.29 11.0386C7.34 10.9986 7.39 10.9586 7.44 10.9186C7.5 10.8786 7.56 10.8486 7.62 10.8286C7.68 10.7986 7.74 10.7786 7.8 10.7686C7.93 10.7386 8.07 10.7386 8.19 10.7686C8.26 10.7786 8.32 10.7986 8.38 10.8286C8.44 10.8486 8.5 10.8786 8.56 10.9186C8.61 10.9586 8.66 10.9986 8.71 11.0386C8.89 11.2286 9 11.4886 9 11.7486C9 12.0086 8.89 12.2686 8.71 12.4586C8.66 12.4986 8.61 12.5386 8.56 12.5786C8.5 12.6186 8.44 12.6486 8.38 12.6686C8.32 12.6986 8.26 12.7186 8.19 12.7286C8.13 12.7386 8.06 12.7486 8 12.7486Z" fill="white"/>
</svg>
